<svg xmlns="http://www.w3.org/2000/svg" viewBox="0 0 128 74.752" clip-path="url(#clip)" width="1000" height="584"><defs><clipPath id="clip" clipPathUnits="objectBoundingBox"><rect x="0" y="0" width="128" height="74.752"/></clipPath></defs><rect x="0" y="0" width="128" height="74.752" fill="rgb(39, 10, 18)"/><path d="M130,32L49,57L28,16Z" fill="rgb(198, 136, 52)" fill-opacity="0.67"/><path d="M114,3L63,42L154,49Z" fill="rgb(255, 175, 105)" fill-opacity="0.43"/><path d="M6,-3L-29,37L54,50Z" fill="rgb(163, 32, 52)" fill-opacity="0.53"/><path d="M33,46L113,42L91,34Z" fill="rgb(209, 235, 0)" fill-opacity="0.66"/><path d="M154,36L127,44L75,35Z" fill="rgb(225, 189, 62)" fill-opacity="0.77"/><path d="M98,44L-74,54L208,117Z" fill="rgb(1, 7, 0)" fill-opacity="0.68"/><path d="M144,27L-65,43L121,-9Z" fill="rgb(116, 13, 66)" fill-opacity="0.53"/><path d="M66,43L53,65L90,51Z" fill="rgb(97, 91, 0)" fill-opacity="0.53"/><path d="M131,41L85,31L123,14Z" fill="rgb(203, 72, 128)" fill-opacity="0.32"/><path d="M41,49L22,36L91,27Z" fill="rgb(187, 136, 22)" fill-opacity="0.30"/><path d="M-1,9L11,5L16,44Z" fill="rgb(151, 0, 41)" fill-opacity="0.69"/><path d="M97,-22L-9,3L44,39Z" fill="rgb(82, 0, 30)" fill-opacity="0.35"/><path d="M26,95L199,57L108,41Z" fill="rgb(0, 2, 0)" fill-opacity="0.46"/><path d="M32,28L129,20L121,4Z" fill="rgb(111, 31, 65)" fill-opacity="0.51"/><path d="M54,45L58,37L139,41Z" fill="rgb(222, 247, 0)" fill-opacity="0.49"/><path d="M92,35L84,16L71,39Z" fill="rgb(149, 92, 82)" fill-opacity="0.42"/><path d="M21,44L70,76L59,47Z" fill="rgb(47, 19, 4)" fill-opacity="0.68"/><path d="M84,51L75,47L71,64Z" fill="rgb(107, 105, 10)" fill-opacity="0.47"/><path d="M120,5L119,20L104,30Z" fill="rgb(152, 68, 131)" fill-opacity="0.42"/><path d="M9,2L116,-39L105,16Z" fill="rgb(38, 2, 15)" fill-opacity="0.39"/><path d="M57,47L23,42L57,39Z" fill="rgb(154, 129, 0)" fill-opacity="0.47"/><path d="M41,24L60,36L18,42Z" fill="rgb(147, 53, 43)" fill-opacity="0.53"/><path d="M27,43L-22,51L-19,23Z" fill="rgb(71, 45, 42)" fill-opacity="0.48"/><path d="M11,8L21,31L76,5Z" fill="rgb(74, 8, 37)" fill-opacity="0.52"/><path d="M76,27L64,41L87,37Z" fill="rgb(166, 125, 61)" fill-opacity="0.46"/><path d="M139,44L105,37L128,34Z" fill="rgb(245, 175, 92)" fill-opacity="0.51"/><path d="M65,59L78,69L82,54Z" fill="rgb(46, 24, 1)" fill-opacity="0.48"/><path d="M18,20L11,40L7,6Z" fill="rgb(179, 1, 59)" fill-opacity="0.39"/><path d="M100,20L123,-61L146,4Z" fill="rgb(61, 22, 86)" fill-opacity="0.24"/><path d="M95,42L107,45L75,53Z" fill="rgb(82, 100, 0)" fill-opacity="0.46"/><path d="M50,19L98,28L71,13Z" fill="rgb(125, 39, 47)" fill-opacity="0.46"/><path d="M120,37L214,44L103,24Z" fill="rgb(196, 70, 90)" fill-opacity="0.37"/><path d="M79,44L57,44L80,58Z" fill="rgb(84, 109, 0)" fill-opacity="0.33"/><path d="M28,51L67,77L-84,70Z" fill="rgb(1, 0, 0)" fill-opacity="0.95"/><path d="M52,45L47,40L67,36Z" fill="rgb(209, 177, 7)" fill-opacity="0.46"/><path d="M57,34L126,35L79,39Z" fill="rgb(199, 143, 88)" fill-opacity="0.39"/><path d="M120,49L168,37L121,44Z" fill="rgb(104, 87, 0)" fill-opacity="0.52"/><path d="M119,48L202,70L38,83Z" fill="rgb(1, 0, 0)" fill-opacity="0.88"/><path d="M11,36L16,40L7,10Z" fill="rgb(180, 13, 48)" fill-opacity="0.45"/><path d="M-4,-24L7,31L-43,102Z" fill="rgb(70, 1, 37)" fill-opacity="0.48"/><path d="M49,22L16,46L13,23Z" fill="rgb(114, 29, 47)" fill-opacity="0.49"/><path d="M60,48L61,53L87,45Z" fill="rgb(34, 33, 0)" fill-opacity="0.48"/><path d="M99,80L86,44L131,59Z" fill="rgb(1, 1, 0)" fill-opacity="0.73"/><path d="M143,48L112,41L101,49Z" fill="rgb(83, 78, 5)" fill-opacity="0.45"/><path d="M120,23L136,20L117,1Z" fill="rgb(94, 21, 66)" fill-opacity="0.44"/><path d="M82,28L117,29L88,37Z" fill="rgb(176, 104, 80)" fill-opacity="0.46"/><path d="M142,44L99,37L114,42Z" fill="rgb(224, 228, 12)" fill-opacity="0.53"/><path d="M39,44L77,47L43,47Z" fill="rgb(103, 104, 0)" fill-opacity="0.53"/><path d="M3,15L-25,-16L11,3Z" fill="rgb(112, 0, 8)" fill-opacity="0.42"/><path d="M51,58L88,51L82,48Z" fill="rgb(146, 138, 10)" fill-opacity="0.17"/><path d="M13,46L21,37L45,46Z" fill="rgb(103, 58, 22)" fill-opacity="0.47"/><path d="M88,43L68,47L96,44Z" fill="rgb(89, 113, 0)" fill-opacity="0.56"/><path d="M110,24L117,20L116,10Z" fill="rgb(162, 73, 135)" fill-opacity="0.55"/><path d="M57,79L54,58L72,59Z" fill="rgb(39, 13, 11)" fill-opacity="0.56"/><path d="M46,48L-24,57L6,45Z" fill="rgb(23, 2, 4)" fill-opacity="0.61"/><path d="M97,23L49,14L113,5Z" fill="rgb(93, 18, 39)" fill-opacity="0.34"/><path d="M81,52L101,50L81,67Z" fill="rgb(0, 1, 0)" fill-opacity="0.62"/><path d="M86,30L111,31L95,20Z" fill="rgb(149, 64, 64)" fill-opacity="0.47"/><path d="M54,65L64,65L57,72Z" fill="rgb(62, 18, 26)" fill-opacity="0.48"/><path d="M59,9L108,2L34,-58Z" fill="rgb(45, 5, 18)" fill-opacity="0.59"/><path d="M61,48L74,60L48,53Z" fill="rgb(58, 47, 0)" fill-opacity="0.48"/><path d="M57,39L42,29L121,27Z" fill="rgb(168, 99, 80)" fill-opacity="0.22"/><path d="M111,41L98,44L100,47Z" fill="rgb(84, 96, 0)" fill-opacity="0.57"/><path d="M118,23L140,6L133,36Z" fill="rgb(137, 28, 71)" fill-opacity="0.44"/><path d="M94,37L121,40L79,44Z" fill="rgb(230, 248, 17)" fill-opacity="0.47"/><path d="M-21,47L17,45L-7,14Z" fill="rgb(76, 30, 45)" fill-opacity="0.52"/><path d="M79,38L79,42L39,43Z" fill="rgb(210, 220, 0)" fill-opacity="0.43"/><path d="M119,29L116,2L103,36Z" fill="rgb(163, 71, 124)" fill-opacity="0.20"/><path d="M77,45L78,48L77,56Z" fill="rgb(143, 140, 96)" fill-opacity="0.49"/><path d="M2,-8L14,12L43,9Z" fill="rgb(42, 2, 33)" fill-opacity="0.33"/><path d="M117,37L110,39L140,44Z" fill="rgb(255, 225, 76)" fill-opacity="0.36"/><path d="M54,64L-24,114L42,57Z" fill="rgb(2, 0, 1)" fill-opacity="0.73"/><path d="M101,42L91,44L82,38Z" fill="rgb(224, 246, 2)" fill-opacity="0.43"/><path d="M95,-5L125,6L144,-2Z" fill="rgb(49, 20, 41)" fill-opacity="0.42"/><path d="M87,25L22,30L98,17Z" fill="rgb(126, 41, 50)" fill-opacity="0.48"/><path d="M32,44L48,39L34,31Z" fill="rgb(155, 60, 28)" fill-opacity="0.51"/><path d="M51,37L43,31L80,25Z" fill="rgb(144, 64, 50)" fill-opacity="0.52"/><path d="M38,11L62,22L14,23Z" fill="rgb(91, 14, 42)" fill-opacity="0.56"/><path d="M84,38L54,38L56,34Z" fill="rgb(183, 138, 52)" fill-opacity="0.52"/><path d="M102,27L70,34L74,21Z" fill="rgb(139, 73, 78)" fill-opacity="0.29"/><path d="M19,29L38,16L11,7Z" fill="rgb(71, 6, 51)" fill-opacity="0.30"/><path d="M117,42L99,49L124,42Z" fill="rgb(66, 66, 0)" fill-opacity="0.36"/><path d="M74,44L73,40L117,40Z" fill="rgb(235, 255, 13)" fill-opacity="0.42"/><path d="M10,50L14,79L-7,45Z" fill="rgb(0, 0, 1)" fill-opacity="0.49"/><path d="M109,27L112,12L99,26Z" fill="rgb(134, 40, 71)" fill-opacity="0.50"/><path d="M81,36L121,38L97,33Z" fill="rgb(204, 153, 93)" fill-opacity="0.47"/><path d="M20,17L91,15L69,1Z" fill="rgb(73, 10, 25)" fill-opacity="0.30"/><path d="M13,32L11,32L18,43Z" fill="rgb(152, 44, 65)" fill-opacity="0.50"/><path d="M88,32L96,33L71,39Z" fill="rgb(185, 142, 65)" fill-opacity="0.49"/><path d="M16,19L20,40L10,7Z" fill="rgb(137, 24, 77)" fill-opacity="0.45"/><path d="M67,61L85,75L79,62Z" fill="rgb(26, 7, 5)" fill-opacity="0.51"/><path d="M73,75L73,142L13,58Z" fill="rgb(2, 0, 1)" fill-opacity="0.87"/><path d="M-2,48L55,47L36,54Z" fill="rgb(32, 3, 4)" fill-opacity="0.50"/><path d="M58,42L60,38L79,44Z" fill="rgb(228, 242, 2)" fill-opacity="0.42"/><path d="M11,9L10,39L3,3Z" fill="rgb(153, 0, 29)" fill-opacity="0.32"/><path d="M29,38L26,46L37,47Z" fill="rgb(113, 66, 23)" fill-opacity="0.43"/><path d="M112,1L144,11L114,6Z" fill="rgb(72, 23, 60)" fill-opacity="0.46"/><path d="M18,23L15,46L12,35Z" fill="rgb(148, 46, 70)" fill-opacity="0.31"/><path d="M100,58L99,49L82,45Z" fill="rgb(1, 1, 0)" fill-opacity="0.61"/><path d="M-8,13L19,-7L-38,17Z" fill="rgb(85, 0, 14)" fill-opacity="0.60"/><path d="M72,38L50,41L81,39Z" fill="rgb(194, 183, 0)" fill-opacity="0.59"/><path d="M110,41L128,49L99,49Z" fill="rgb(59, 48, 13)" fill-opacity="0.46"/><path d="M-19,21L-3,0L7,24Z" fill="rgb(95, 0, 41)" fill-opacity="0.49"/><path d="M21,2L79,1L-44,-31Z" fill="rgb(32, 5, 16)" fill-opacity="0.54"/><path d="M-14,37L5,45L26,43Z" fill="rgb(76, 38, 35)" fill-opacity="0.59"/><path d="M120,13L98,20L100,11Z" fill="rgb(106, 19, 59)" fill-opacity="0.40"/><path d="M67,27L63,15L37,17Z" fill="rgb(107, 25, 38)" fill-opacity="0.37"/><path d="M82,75L105,45L110,80Z" fill="rgb(1, 1, 1)" fill-opacity="0.82"/><path d="M29,28L28,44L16,36Z" fill="rgb(108, 36, 41)" fill-opacity="0.37"/><path d="M43,47L62,47L53,51Z" fill="rgb(31, 27, 0)" fill-opacity="0.55"/><path d="M78,48L83,45L99,47Z" fill="rgb(0, 0, 0)" fill-opacity="0.55"/><path d="M58,47L53,40L65,39Z" fill="rgb(206, 200, 0)" fill-opacity="0.52"/><path d="M108,49L128,48L99,43Z" fill="rgb(55, 43, 12)" fill-opacity="0.63"/><path d="M128,23L131,33L120,33Z" fill="rgb(165, 47, 78)" fill-opacity="0.37"/><path d="M91,46L103,40L96,46Z" fill="rgb(136, 158, 0)" fill-opacity="0.43"/><path d="M108,5L121,11L124,2Z" fill="rgb(86, 30, 77)" fill-opacity="0.40"/><path d="M68,56L81,66L55,61Z" fill="rgb(34, 18, 2)" fill-opacity="0.50"/><path d="M80,54L68,53L79,51Z" fill="rgb(120, 118, 9)" fill-opacity="0.48"/><path d="M79,19L40,41L49,24Z" fill="rgb(133, 51, 42)" fill-opacity="0.31"/><path d="M67,38L69,32L78,35Z" fill="rgb(161, 116, 56)" fill-opacity="0.63"/><path d="M126,47L134,51L111,47Z" fill="rgb(30, 12, 6)" fill-opacity="0.47"/><path d="M117,7L118,25L112,6Z" fill="rgb(125, 50, 108)" fill-opacity="0.43"/><path d="M25,12L36,-1L61,6Z" fill="rgb(54, 6, 26)" fill-opacity="0.41"/><path d="M55,46L74,46L56,59Z" fill="rgb(57, 50, 0)" fill-opacity="0.32"/><path d="M19,22L39,31L42,18Z" fill="rgb(110, 12, 44)" fill-opacity="0.29"/><path d="M22,12L13,1L17,21Z" fill="rgb(59, 4, 34)" fill-opacity="0.44"/><path d="M83,49L74,47L87,47Z" fill="rgb(14, 14, 1)" fill-opacity="0.51"/><path d="M6,32L-7,35L-5,8Z" fill="rgb(75, 13, 51)" fill-opacity="0.52"/><path d="M104,40L111,44L88,38Z" fill="rgb(198, 222, 4)" fill-opacity="0.31"/><path d="M64,51L54,55L78,54Z" fill="rgb(77, 69, 1)" fill-opacity="0.50"/><path d="M108,20L100,28L83,22Z" fill="rgb(131, 40, 61)" fill-opacity="0.40"/><path d="M63,66L56,67L48,59Z" fill="rgb(63, 20, 26)" fill-opacity="0.49"/><path d="M29,43L50,29L28,30Z" fill="rgb(157, 41, 40)" fill-opacity="0.21"/><path d="M115,41L138,45L120,41Z" fill="rgb(231, 229, 0)" fill-opacity="0.48"/><path d="M114,27L99,30L126,33Z" fill="rgb(184, 82, 91)" fill-opacity="0.46"/><path d="M115,19L111,20L115,17Z" fill="rgb(176, 86, 152)" fill-opacity="0.52"/><path d="M80,44L73,42L94,41Z" fill="rgb(238, 255, 21)" fill-opacity="0.48"/><path d="M111,36L124,42L122,32Z" fill="rgb(255, 202, 122)" fill-opacity="0.14"/><path d="M85,47L90,46L82,44Z" fill="rgb(10, 15, 0)" fill-opacity="0.51"/><path d="M49,43L34,45L56,38Z" fill="rgb(163, 125, 0)" fill-opacity="0.44"/><path d="M47,41L48,32L25,41Z" fill="rgb(152, 74, 35)" fill-opacity="0.36"/><path d="M122,33L165,32L138,51Z" fill="rgb(214, 96, 79)" fill-opacity="0.44"/><path d="M74,54L63,42L71,57Z" fill="rgb(80, 78, 0)" fill-opacity="0.42"/><path d="M2,28L-5,41L13,42Z" fill="rgb(81, 26, 49)" fill-opacity="0.51"/><path d="M78,61L91,48L116,108Z" fill="rgb(1, 0, 1)" fill-opacity="0.74"/><path d="M110,38L115,42L124,42Z" fill="rgb(247, 241, 25)" fill-opacity="0.47"/><path d="M52,38L56,43L61,39Z" fill="rgb(213, 175, 7)" fill-opacity="0.39"/><path d="M67,61L63,64L74,98Z" fill="rgb(11, 1, 4)" fill-opacity="0.35"/><path d="M98,10L91,22L116,6Z" fill="rgb(84, 17, 56)" fill-opacity="0.36"/><path d="M87,26L87,30L73,35Z" fill="rgb(158, 101, 84)" fill-opacity="0.50"/><path d="M114,38L100,38L113,35Z" fill="rgb(197, 160, 97)" fill-opacity="0.44"/><path d="M10,2L7,16L5,4Z" fill="rgb(129, 0, 27)" fill-opacity="0.49"/><path d="M25,20L20,13L44,11Z" fill="rgb(69, 9, 38)" fill-opacity="0.49"/><path d="M75,2L63,11L48,12Z" fill="rgb(62, 4, 24)" fill-opacity="0.59"/><path d="M106,31L115,22L109,20Z" fill="rgb(163, 66, 95)" fill-opacity="0.44"/><path d="M67,39L58,46L73,39Z" fill="rgb(187, 199, 0)" fill-opacity="0.54"/><path d="M48,50L52,62L30,52Z" fill="rgb(42, 7, 5)" fill-opacity="0.48"/><path d="M2,51L-23,46L9,46Z" fill="rgb(21, 4, 8)" fill-opacity="0.61"/><path d="M9,38L0,2L5,10Z" fill="rgb(114, 0, 35)" fill-opacity="0.46"/><path d="M116,53L98,49L109,50Z" fill="rgb(0, 0, 0)" fill-opacity="0.78"/><path d="M91,43L89,38L91,46Z" fill="rgb(204, 204, 15)" fill-opacity="0.50"/><path d="M112,29L110,33L120,36Z" fill="rgb(202, 109, 103)" fill-opacity="0.49"/><path d="M85,30L73,36L55,32Z" fill="rgb(158, 96, 65)" fill-opacity="0.39"/><path d="M84,28L88,28L81,35Z" fill="rgb(166, 109, 97)" fill-opacity="0.48"/><path d="M27,0L13,4L32,12Z" fill="rgb(45, 8, 27)" fill-opacity="0.48"/><path d="M107,8L110,11L115,-12Z" fill="rgb(87, 28, 68)" fill-opacity="0.47"/><path d="M84,14L71,7L97,15Z" fill="rgb(78, 16, 36)" fill-opacity="0.53"/><path d="M59,64L53,64L56,69Z" fill="rgb(61, 19, 23)" fill-opacity="0.58"/><path d="M80,14L50,13L41,21Z" fill="rgb(88, 14, 39)" fill-opacity="0.54"/><path d="M66,14L70,14L70,23Z" fill="rgb(111, 26, 62)" fill-opacity="0.48"/><path d="M74,45L72,41L81,43Z" fill="rgb(222, 246, 12)" fill-opacity="0.47"/><path d="M37,48L43,63L46,46Z" fill="rgb(38, 11, 5)" fill-opacity="0.55"/><path d="M41,38L32,35L37,44Z" fill="rgb(158, 61, 27)" fill-opacity="0.48"/><path d="M18,33L18,28L11,11Z" fill="rgb(150, 23, 77)" fill-opacity="0.45"/><path d="M13,16L16,16L11,9Z" fill="rgb(121, 0, 59)" fill-opacity="0.53"/><path d="M79,21L75,15L101,19Z" fill="rgb(103, 26, 48)" fill-opacity="0.60"/><path d="M94,44L109,38L96,41Z" fill="rgb(201, 230, 7)" fill-opacity="0.48"/><path d="M98,43L79,39L110,39Z" fill="rgb(222, 242, 7)" fill-opacity="0.47"/><path d="M11,37L7,15L13,32Z" fill="rgb(180, 0, 49)" fill-opacity="0.40"/><path d="M99,43L125,43L95,47Z" fill="rgb(74, 68, 10)" fill-opacity="0.68"/><path d="M75,37L66,39L58,35Z" fill="rgb(178, 138, 46)" fill-opacity="0.50"/><path d="M78,54L80,55L97,51Z" fill="rgb(15, 11, 2)" fill-opacity="0.41"/><path d="M1,51L28,53L-56,132Z" fill="rgb(1, 0, 1)" fill-opacity="0.86"/><path d="M125,2L125,-28L154,12Z" fill="rgb(48, 6, 34)" fill-opacity="0.59"/><path d="M52,-7L105,5L121,-29Z" fill="rgb(27, 10, 25)" fill-opacity="0.23"/><path d="M80,44L77,46L46,47Z" fill="rgb(96, 105, 0)" fill-opacity="0.55"/><path d="M78,46L63,44L80,44Z" fill="rgb(113, 131, 0)" fill-opacity="0.55"/><path d="M21,53L-6,48L41,50Z" fill="rgb(33, 3, 7)" fill-opacity="0.46"/><path d="M88,38L90,38L90,45Z" fill="rgb(225, 218, 19)" fill-opacity="0.50"/><path d="M25,45L16,43L-11,47Z" fill="rgb(62, 32, 24)" fill-opacity="0.44"/><path d="M61,37L60,34L52,37Z" fill="rgb(181, 107, 54)" fill-opacity="0.50"/><path d="M66,62L81,57L71,56Z" fill="rgb(52, 40, 2)" fill-opacity="0.47"/><path d="M62,60L40,51L54,50Z" fill="rgb(47, 23, 3)" fill-opacity="0.46"/><path d="M66,55L77,55L60,59Z" fill="rgb(57, 42, 1)" fill-opacity="0.48"/><path d="M17,23L39,21L15,16Z" fill="rgb(88, 13, 45)" fill-opacity="0.54"/><path d="M68,33L48,39L55,33Z" fill="rgb(170, 100, 53)" fill-opacity="0.34"/><path d="M66,47L74,48L29,52Z" fill="rgb(39, 20, 4)" fill-opacity="0.44"/><path d="M33,43L29,45L56,48Z" fill="rgb(93, 63, 0)" fill-opacity="0.35"/><path d="M90,49L79,53L86,49Z" fill="rgb(94, 97, 0)" fill-opacity="0.58"/><path d="M88,74L76,64L62,62Z" fill="rgb(20, 5, 2)" fill-opacity="0.53"/><path d="M60,41L78,44L57,42Z" fill="rgb(230, 247, 10)" fill-opacity="0.51"/></svg>