<svg xmlns="http://www.w3.org/2000/svg" viewBox="0 0 256 144" clip-path="url(#clip)" width="1371" height="771.1875"><defs><clipPath id="clip" clipPathUnits="objectBoundingBox"><rect x="0" y="0" width="256" height="144"/></clipPath></defs><rect x="0" y="0" width="256" height="144" fill="rgb(176, 174, 172)"/><path d="M72,21L140,101L229,12Z" fill="rgb(7, 10, 11)" fill-opacity="0.67"/><path d="M401,243L237,7L167,139Z" fill="rgb(51, 44, 54)" fill-opacity="0.72"/><path d="M214,13L160,79L197,85Z" fill="rgb(34, 36, 40)" fill-opacity="0.72"/><path d="M58,147L-37,113L88,221Z" fill="rgb(6, 10, 16)" fill-opacity="0.80"/><path d="M186,5L118,9L107,120Z" fill="rgb(41, 43, 44)" fill-opacity="0.58"/><path d="M53,13L48,130L82,122Z" fill="rgb(48, 55, 46)" fill-opacity="0.72"/><path d="M82,54L69,100L59,27Z" fill="rgb(19, 35, 0)" fill-opacity="0.47"/><path d="M69,171L150,168L81,44Z" fill="rgb(255, 255, 252)" fill-opacity="0.56"/><path d="M131,104L163,129L98,109Z" fill="rgb(0, 5, 12)" fill-opacity="0.45"/><path d="M-59,166L15,57L54,90Z" fill="rgb(255, 255, 250)" fill-opacity="0.82"/><path d="M195,83L131,88L140,121Z" fill="rgb(249, 233, 214)" fill-opacity="0.51"/><path d="M-19,31L13,68L122,17Z" fill="rgb(141, 144, 102)" fill-opacity="0.89"/><path d="M161,1L-27,37L28,-62Z" fill="rgb(255, 253, 245)" fill-opacity="0.86"/><path d="M169,114L195,155L168,131Z" fill="rgb(38, 41, 52)" fill-opacity="0.67"/><path d="M32,22L106,62L99,18Z" fill="rgb(191, 194, 137)" fill-opacity="0.56"/><path d="M158,124L148,134L109,97Z" fill="rgb(23, 32, 37)" fill-opacity="0.50"/><path d="M56,118L59,42L43,52Z" fill="rgb(30, 38, 36)" fill-opacity="0.60"/><path d="M75,25L26,38L97,52Z" fill="rgb(163, 171, 60)" fill-opacity="0.65"/><path d="M-1,124L149,183L90,131Z" fill="rgb(254, 252, 246)" fill-opacity="0.79"/><path d="M116,9L114,107L98,10Z" fill="rgb(50, 52, 56)" fill-opacity="0.71"/><path d="M141,102L79,97L121,91Z" fill="rgb(253, 255, 246)" fill-opacity="0.50"/><path d="M162,177L154,130L122,123Z" fill="rgb(246, 243, 229)" fill-opacity="0.66"/><path d="M216,4L133,9L223,13Z" fill="rgb(3, 7, 12)" fill-opacity="0.54"/><path d="M-9,107L-9,122L55,139Z" fill="rgb(253, 252, 248)" fill-opacity="0.84"/><path d="M258,-16L219,24L222,-49Z" fill="rgb(255, 255, 254)" fill-opacity="0.70"/><path d="M205,34L253,78L283,45Z" fill="rgb(243, 216, 205)" fill-opacity="0.33"/><path d="M157,102L157,142L176,99Z" fill="rgb(255, 248, 229)" fill-opacity="0.69"/><path d="M95,143L141,119L126,120Z" fill="rgb(113, 80, 26)" fill-opacity="0.58"/><path d="M74,123L132,105L67,119Z" fill="rgb(78, 82, 86)" fill-opacity="0.99"/><path d="M75,66L104,49L111,104Z" fill="rgb(255, 255, 255)" fill-opacity="0.55"/><path d="M-54,88L45,58L46,125Z" fill="rgb(252, 251, 245)" fill-opacity="0.87"/><path d="M253,2L243,14L270,19Z" fill="rgb(6, 12, 41)" fill-opacity="0.47"/><path d="M56,131L29,123L49,122Z" fill="rgb(43, 49, 58)" fill-opacity="0.65"/><path d="M76,26L87,55L103,24Z" fill="rgb(108, 110, 112)" fill-opacity="0.72"/><path d="M228,131L218,244L168,126Z" fill="rgb(49, 46, 56)" fill-opacity="0.83"/><path d="M240,142L233,133L226,149Z" fill="rgb(251, 255, 248)" fill-opacity="0.51"/><path d="M238,131L253,169L260,64Z" fill="rgb(36, 37, 44)" fill-opacity="0.82"/><path d="M157,114L156,130L138,123Z" fill="rgb(23, 26, 29)" fill-opacity="0.63"/><path d="M159,77L178,76L146,97Z" fill="rgb(234, 216, 195)" fill-opacity="0.49"/><path d="M169,112L193,93L177,128Z" fill="rgb(212, 197, 195)" fill-opacity="0.62"/><path d="M180,108L223,105L239,141Z" fill="rgb(143, 131, 130)" fill-opacity="0.53"/><path d="M107,76L194,75L213,12Z" fill="rgb(41, 42, 46)" fill-opacity="0.80"/><path d="M207,74L185,84L199,63Z" fill="rgb(155, 152, 161)" fill-opacity="0.51"/><path d="M197,78L236,23L200,51Z" fill="rgb(128, 125, 132)" fill-opacity="0.72"/><path d="M21,118L7,118L8,110Z" fill="rgb(21, 27, 37)" fill-opacity="0.54"/><path d="M104,115L112,100L125,102Z" fill="rgb(15, 25, 38)" fill-opacity="0.47"/><path d="M210,4L90,10L319,-25Z" fill="rgb(243, 243, 238)" fill-opacity="0.95"/><path d="M117,93L107,81L149,87Z" fill="rgb(36, 38, 42)" fill-opacity="0.61"/><path d="M98,20L23,25L101,8Z" fill="rgb(255, 255, 250)" fill-opacity="0.60"/><path d="M143,117L160,116L115,94Z" fill="rgb(240, 241, 235)" fill-opacity="0.79"/><path d="M271,88L194,101L207,45Z" fill="rgb(31, 22, 39)" fill-opacity="0.32"/><path d="M188,90L198,74L275,132Z" fill="rgb(37, 45, 56)" fill-opacity="0.54"/><path d="M42,31L-4,24L10,71Z" fill="rgb(76, 76, 119)" fill-opacity="0.34"/><path d="M187,78L181,111L213,105Z" fill="rgb(234, 243, 222)" fill-opacity="0.18"/><path d="M37,52L56,39L50,15Z" fill="rgb(250, 253, 89)" fill-opacity="0.38"/><path d="M69,102L81,64L47,75Z" fill="rgb(39, 41, 62)" fill-opacity="0.48"/><path d="M44,129L54,75L54,129Z" fill="rgb(57, 65, 79)" fill-opacity="0.52"/><path d="M48,127L76,94L79,118Z" fill="rgb(98, 102, 111)" fill-opacity="0.74"/><path d="M85,119L43,185L120,120Z" fill="rgb(253, 252, 245)" fill-opacity="0.77"/><path d="M240,129L228,142L224,132Z" fill="rgb(39, 37, 47)" fill-opacity="0.64"/><path d="M234,26L280,24L246,36Z" fill="rgb(60, 40, 56)" fill-opacity="0.53"/><path d="M144,14L119,13L138,8Z" fill="rgb(18, 19, 27)" fill-opacity="0.61"/><path d="M157,115L143,106L141,73Z" fill="rgb(113, 109, 107)" fill-opacity="0.43"/><path d="M234,22L242,33L216,17Z" fill="rgb(39, 59, 74)" fill-opacity="0.46"/><path d="M76,52L58,52L61,35Z" fill="rgb(69, 90, 0)" fill-opacity="0.53"/><path d="M127,8L140,15L98,14Z" fill="rgb(42, 44, 48)" fill-opacity="0.77"/><path d="M105,109L56,126L122,109Z" fill="rgb(32, 35, 43)" fill-opacity="0.54"/><path d="M203,60L247,39L226,25Z" fill="rgb(136, 138, 139)" fill-opacity="0.55"/><path d="M239,100L253,100L225,86Z" fill="rgb(226, 179, 171)" fill-opacity="0.36"/><path d="M196,11L216,12L198,13Z" fill="rgb(255, 255, 247)" fill-opacity="0.52"/><path d="M79,63L112,102L78,119Z" fill="rgb(255, 255, 254)" fill-opacity="0.65"/><path d="M107,76L117,92L104,32Z" fill="rgb(31, 33, 39)" fill-opacity="0.50"/><path d="M172,135L167,163L158,119Z" fill="rgb(230, 222, 204)" fill-opacity="0.55"/><path d="M42,59L73,109L78,54Z" fill="rgb(58, 61, 71)" fill-opacity="0.57"/><path d="M151,87L175,120L173,80Z" fill="rgb(252, 236, 221)" fill-opacity="0.60"/><path d="M122,119L125,103L117,97Z" fill="rgb(44, 54, 62)" fill-opacity="0.57"/><path d="M239,139L264,144L252,136Z" fill="rgb(109, 101, 112)" fill-opacity="0.59"/><path d="M256,49L255,77L247,71Z" fill="rgb(225, 212, 190)" fill-opacity="0.39"/><path d="M225,13L230,63L236,6Z" fill="rgb(93, 106, 118)" fill-opacity="0.47"/><path d="M84,32L43,29L45,47Z" fill="rgb(207, 214, 55)" fill-opacity="0.45"/><path d="M183,91L176,100L184,102Z" fill="rgb(124, 63, 44)" fill-opacity="0.50"/><path d="M198,70L243,94L221,88Z" fill="rgb(162, 138, 141)" fill-opacity="0.49"/><path d="M25,48L40,60L54,55Z" fill="rgb(64, 68, 86)" fill-opacity="0.44"/><path d="M109,16L105,19L136,16Z" fill="rgb(255, 255, 248)" fill-opacity="0.53"/><path d="M-24,112L51,92L46,114Z" fill="rgb(252, 251, 245)" fill-opacity="0.68"/><path d="M203,55L205,67L194,79Z" fill="rgb(178, 179, 190)" fill-opacity="0.50"/><path d="M105,54L81,52L111,108Z" fill="rgb(255, 254, 246)" fill-opacity="0.50"/><path d="M192,-1L260,-11L240,9Z" fill="rgb(255, 252, 248)" fill-opacity="0.75"/><path d="M6,116L48,128L14,114Z" fill="rgb(0, 0, 0)" fill-opacity="0.50"/><path d="M81,51L82,48L78,49Z" fill="rgb(60, 94, 34)" fill-opacity="0.50"/><path d="M245,28L245,22L284,7Z" fill="rgb(217, 194, 175)" fill-opacity="0.50"/><path d="M159,152L160,119L154,125Z" fill="rgb(196, 171, 145)" fill-opacity="0.49"/><path d="M116,111L136,118L114,125Z" fill="rgb(147, 153, 143)" fill-opacity="0.52"/><path d="M217,142L187,111L168,155Z" fill="rgb(52, 48, 59)" fill-opacity="0.70"/><path d="M134,113L130,104L161,79Z" fill="rgb(249, 242, 235)" fill-opacity="0.39"/><path d="M237,128L174,115L241,113Z" fill="rgb(146, 133, 131)" fill-opacity="0.31"/><path d="M29,118L49,126L34,111Z" fill="rgb(244, 243, 236)" fill-opacity="0.62"/><path d="M247,15L382,26L244,6Z" fill="rgb(80, 74, 89)" fill-opacity="0.74"/><path d="M67,-33L72,24L101,18Z" fill="rgb(255, 255, 251)" fill-opacity="0.51"/><path d="M54,208L82,121L54,129Z" fill="rgb(238, 237, 228)" fill-opacity="0.67"/><path d="M210,64L197,90L188,84Z" fill="rgb(49, 56, 69)" fill-opacity="0.47"/><path d="M43,141L63,147L-39,140Z" fill="rgb(29, 31, 36)" fill-opacity="0.62"/><path d="M150,81L116,81L150,78Z" fill="rgb(210, 209, 171)" fill-opacity="0.54"/><path d="M223,20L205,42L213,45Z" fill="rgb(249, 244, 227)" fill-opacity="0.58"/><path d="M156,102L156,116L128,89Z" fill="rgb(157, 153, 150)" fill-opacity="0.49"/><path d="M165,77L153,80L129,79Z" fill="rgb(170, 172, 139)" fill-opacity="0.52"/><path d="M-43,149L15,132L1,125Z" fill="rgb(36, 39, 45)" fill-opacity="0.91"/><path d="M190,64L211,33L214,23Z" fill="rgb(41, 44, 48)" fill-opacity="0.75"/><path d="M125,115L116,99L144,121Z" fill="rgb(4, 10, 19)" fill-opacity="0.44"/><path d="M145,78L144,81L121,82Z" fill="rgb(183, 181, 157)" fill-opacity="0.46"/><path d="M104,11L113,9L121,17Z" fill="rgb(36, 39, 42)" fill-opacity="0.50"/><path d="M72,28L6,31L25,23Z" fill="rgb(190, 186, 152)" fill-opacity="0.55"/><path d="M79,41L56,25L57,-19Z" fill="rgb(227, 217, 141)" fill-opacity="0.26"/><path d="M-1,36L48,67L30,27Z" fill="rgb(94, 97, 111)" fill-opacity="0.34"/><path d="M251,50L247,28L351,11Z" fill="rgb(94, 76, 87)" fill-opacity="0.78"/><path d="M-9,124L49,84L47,68Z" fill="rgb(252, 251, 245)" fill-opacity="0.56"/><path d="M82,53L91,59L80,41Z" fill="rgb(176, 179, 187)" fill-opacity="0.48"/><path d="M6,61L36,57L4,71Z" fill="rgb(171, 167, 155)" fill-opacity="0.60"/><path d="M238,136L236,196L223,145Z" fill="rgb(253, 253, 243)" fill-opacity="0.54"/><path d="M107,111L77,76L79,103Z" fill="rgb(255, 255, 248)" fill-opacity="0.55"/><path d="M227,23L220,21L219,6Z" fill="rgb(203, 206, 202)" fill-opacity="0.49"/><path d="M192,74L172,75L199,81Z" fill="rgb(124, 130, 118)" fill-opacity="0.52"/><path d="M61,54L43,60L52,37Z" fill="rgb(69, 85, 27)" fill-opacity="0.49"/><path d="M155,92L115,90L123,98Z" fill="rgb(155, 156, 142)" fill-opacity="0.64"/><path d="M178,111L161,120L174,81Z" fill="rgb(249, 238, 225)" fill-opacity="0.60"/><path d="M228,35L235,27L261,63Z" fill="rgb(113, 98, 97)" fill-opacity="0.49"/><path d="M34,124L32,138L11,130Z" fill="rgb(255, 255, 252)" fill-opacity="0.52"/><path d="M113,132L111,136L100,137Z" fill="rgb(106, 67, 22)" fill-opacity="0.50"/><path d="M180,14L133,59L212,14Z" fill="rgb(37, 38, 44)" fill-opacity="0.62"/><path d="M163,13L109,19L191,13Z" fill="rgb(255, 252, 225)" fill-opacity="0.46"/><path d="M57,62L70,81L61,50Z" fill="rgb(103, 103, 111)" fill-opacity="0.42"/><path d="M156,13L188,5L208,11Z" fill="rgb(42, 44, 47)" fill-opacity="0.59"/><path d="M145,104L134,113L151,115Z" fill="rgb(252, 255, 254)" fill-opacity="0.49"/><path d="M76,104L81,119L70,119Z" fill="rgb(92, 100, 106)" fill-opacity="0.68"/><path d="M192,74L196,72L205,13Z" fill="rgb(43, 45, 49)" fill-opacity="0.82"/><path d="M211,8L217,38L220,32Z" fill="rgb(221, 216, 194)" fill-opacity="0.48"/><path d="M215,27L226,17L199,56Z" fill="rgb(238, 229, 226)" fill-opacity="0.44"/><path d="M244,66L217,56L253,83Z" fill="rgb(100, 35, 52)" fill-opacity="0.46"/><path d="M158,7L162,14L129,14Z" fill="rgb(18, 20, 27)" fill-opacity="0.47"/><path d="M217,51L205,71L262,104Z" fill="rgb(19, 31, 46)" fill-opacity="0.32"/><path d="M156,138L106,137L77,230Z" fill="rgb(254, 252, 241)" fill-opacity="0.46"/><path d="M19,133L7,112L-10,119Z" fill="rgb(251, 251, 245)" fill-opacity="0.48"/><path d="M70,51L72,69L78,25Z" fill="rgb(148, 159, 93)" fill-opacity="0.45"/><path d="M254,41L243,18L223,22Z" fill="rgb(24, 42, 57)" fill-opacity="0.40"/><path d="M57,22L-33,30L24,-104Z" fill="rgb(255, 254, 248)" fill-opacity="0.73"/><path d="M47,70L55,102L70,90Z" fill="rgb(40, 44, 51)" fill-opacity="0.54"/><path d="M127,124L82,168L137,121Z" fill="rgb(229, 230, 222)" fill-opacity="0.62"/><path d="M106,132L111,111L72,128Z" fill="rgb(255, 255, 252)" fill-opacity="0.43"/><path d="M209,3L218,10L160,12Z" fill="rgb(41, 43, 48)" fill-opacity="0.59"/><path d="M82,52L94,43L110,50Z" fill="rgb(81, 84, 124)" fill-opacity="0.40"/><path d="M207,128L217,110L196,119Z" fill="rgb(142, 122, 125)" fill-opacity="0.64"/><path d="M62,13L52,-14L88,-26Z" fill="rgb(205, 200, 185)" fill-opacity="0.53"/><path d="M142,91L121,86L164,77Z" fill="rgb(39, 42, 46)" fill-opacity="0.46"/><path d="M223,112L209,86L242,98Z" fill="rgb(49, 40, 53)" fill-opacity="0.48"/><path d="M176,77L183,78L173,88Z" fill="rgb(30, 29, 29)" fill-opacity="0.36"/><path d="M180,110L184,95L177,90Z" fill="rgb(138, 97, 85)" fill-opacity="0.42"/><path d="M67,53L67,42L58,53Z" fill="rgb(29, 37, 23)" fill-opacity="0.56"/><path d="M114,11L127,14L116,8Z" fill="rgb(47, 50, 55)" fill-opacity="0.49"/><path d="M160,91L190,87L157,80Z" fill="rgb(240, 227, 213)" fill-opacity="0.69"/><path d="M113,9L103,-45L150,7Z" fill="rgb(255, 254, 248)" fill-opacity="0.49"/><path d="M217,34L222,48L205,46Z" fill="rgb(207, 195, 183)" fill-opacity="0.38"/><path d="M73,122L55,129L44,128Z" fill="rgb(9, 11, 22)" fill-opacity="0.49"/><path d="M254,5L228,12L261,-6Z" fill="rgb(161, 170, 193)" fill-opacity="0.40"/><path d="M121,125L107,137L130,122Z" fill="rgb(13, 0, 0)" fill-opacity="0.40"/><path d="M40,122L17,119L44,128Z" fill="rgb(1, 11, 23)" fill-opacity="0.44"/><path d="M125,124L106,134L133,116Z" fill="rgb(243, 166, 51)" fill-opacity="0.51"/><path d="M92,146L124,126L102,136Z" fill="rgb(97, 70, 38)" fill-opacity="0.51"/><path d="M17,132L21,122L33,124Z" fill="rgb(252, 252, 247)" fill-opacity="0.53"/><path d="M46,61L41,67L42,51Z" fill="rgb(176, 184, 176)" fill-opacity="0.49"/><path d="M8,33L-21,28L63,23Z" fill="rgb(181, 177, 155)" fill-opacity="0.55"/><path d="M143,103L151,108L146,101Z" fill="rgb(63, 68, 79)" fill-opacity="0.56"/><path d="M51,66L60,122L49,106Z" fill="rgb(50, 56, 65)" fill-opacity="0.50"/><path d="M76,83L83,47L76,100Z" fill="rgb(242, 242, 233)" fill-opacity="0.61"/><path d="M179,118L180,105L176,116Z" fill="rgb(90, 93, 115)" fill-opacity="0.53"/><path d="M125,103L145,117L140,96Z" fill="rgb(254, 255, 250)" fill-opacity="0.44"/><path d="M50,50L46,62L56,77Z" fill="rgb(30, 35, 42)" fill-opacity="0.51"/><path d="M167,125L190,124L184,134Z" fill="rgb(73, 85, 99)" fill-opacity="0.48"/><path d="M128,118L137,117L93,133Z" fill="rgb(227, 219, 199)" fill-opacity="0.47"/><path d="M64,37L42,50L75,43Z" fill="rgb(115, 140, 10)" fill-opacity="0.40"/><path d="M162,120L160,100L184,104Z" fill="rgb(253, 244, 235)" fill-opacity="0.41"/><path d="M104,57L75,92L112,103Z" fill="rgb(255, 253, 246)" fill-opacity="0.49"/><path d="M211,51L184,87L186,91Z" fill="rgb(190, 189, 192)" fill-opacity="0.53"/><path d="M84,47L103,39L75,41Z" fill="rgb(128, 130, 114)" fill-opacity="0.46"/><path d="M103,33L144,78L108,81Z" fill="rgb(54, 55, 55)" fill-opacity="0.67"/><path d="M-8,41L-7,60L50,52Z" fill="rgb(128, 129, 123)" fill-opacity="0.72"/><path d="M157,116L129,119L154,125Z" fill="rgb(35, 39, 43)" fill-opacity="0.52"/><path d="M188,95L189,77L182,108Z" fill="rgb(235, 226, 216)" fill-opacity="0.58"/><path d="M162,98L161,80L136,101Z" fill="rgb(216, 194, 180)" fill-opacity="0.49"/><path d="M237,10L247,15L236,1Z" fill="rgb(226, 221, 214)" fill-opacity="0.44"/><path d="M183,107L182,104L178,125Z" fill="rgb(225, 233, 243)" fill-opacity="0.40"/><path d="M256,132L242,136L245,101Z" fill="rgb(22, 26, 33)" fill-opacity="0.47"/><path d="M57,123L44,125L53,125Z" fill="rgb(210, 215, 216)" fill-opacity="0.54"/><path d="M109,88L109,57L112,98Z" fill="rgb(42, 46, 53)" fill-opacity="0.59"/><path d="M56,31L50,19L54,41Z" fill="rgb(253, 251, 77)" fill-opacity="0.45"/><path d="M6,54L-11,77L9,69Z" fill="rgb(193, 192, 167)" fill-opacity="0.53"/><path d="M47,89L47,119L31,119Z" fill="rgb(252, 249, 239)" fill-opacity="0.49"/><path d="M28,118L35,124L18,119Z" fill="rgb(18, 25, 35)" fill-opacity="0.50"/><path d="M175,93L168,75L168,90Z" fill="rgb(231, 216, 200)" fill-opacity="0.62"/><path d="M195,69L156,83L212,45Z" fill="rgb(41, 43, 48)" fill-opacity="0.25"/><path d="M80,26L101,44L102,26Z" fill="rgb(95, 99, 107)" fill-opacity="0.50"/></svg>