<svg xmlns="http://www.w3.org/2000/svg" viewBox="0 0 128 128" clip-path="url(#clip)" width="256" height="256"><defs><clipPath id="clip" clipPathUnits="objectBoundingBox"><rect x="0" y="0" width="128" height="128"/></clipPath></defs><rect x="0" y="0" width="128" height="128" fill="rgb(48, 50, 53)"/><path d="M105,96L37,85L71,-3Z" fill="rgb(236, 189, 148)" fill-opacity="0.74"/><path d="M175,134L70,136L91,100Z" fill="rgb(228, 246, 242)" fill-opacity="0.55"/><path d="M82,158L94,23L44,29Z" fill="rgb(247, 200, 158)" fill-opacity="0.51"/><path d="M19,66L68,129L59,56Z" fill="rgb(111, 71, 52)" fill-opacity="0.67"/><path d="M127,55L210,-22L37,-5Z" fill="rgb(2, 0, 0)" fill-opacity="0.68"/><path d="M101,-43L207,155L93,98Z" fill="rgb(6, 4, 4)" fill-opacity="0.58"/><path d="M63,96L86,102L53,105Z" fill="rgb(244, 183, 164)" fill-opacity="0.56"/><path d="M100,10L21,39L41,-11Z" fill="rgb(33, 28, 26)" fill-opacity="0.70"/><path d="M59,19L37,59L93,47Z" fill="rgb(255, 214, 164)" fill-opacity="0.36"/><path d="M39,124L12,110L-40,162Z" fill="rgb(70, 111, 141)" fill-opacity="0.55"/><path d="M44,94L76,96L56,80Z" fill="rgb(69, 45, 39)" fill-opacity="0.59"/><path d="M87,95L34,174L85,117Z" fill="rgb(41, 32, 30)" fill-opacity="0.44"/><path d="M60,86L95,76L63,63Z" fill="rgb(255, 232, 197)" fill-opacity="0.58"/><path d="M80,55L64,58L82,68Z" fill="rgb(122, 86, 80)" fill-opacity="0.58"/><path d="M101,24L99,82L84,19Z" fill="rgb(62, 53, 49)" fill-opacity="0.76"/><path d="M91,106L78,102L95,87Z" fill="rgb(132, 102, 77)" fill-opacity="0.58"/><path d="M45,5L19,31L34,98Z" fill="rgb(5, 2, 0)" fill-opacity="0.56"/><path d="M55,88L41,91L49,65Z" fill="rgb(208, 147, 101)" fill-opacity="0.53"/><path d="M80,19L56,59L92,50Z" fill="rgb(239, 212, 177)" fill-opacity="0.59"/><path d="M60,116L71,94L83,109Z" fill="rgb(251, 204, 159)" fill-opacity="0.36"/><path d="M106,109L92,101L78,141Z" fill="rgb(247, 219, 178)" fill-opacity="0.47"/><path d="M74,90L90,106L83,113Z" fill="rgb(88, 68, 52)" fill-opacity="0.52"/><path d="M43,31L53,29L43,61Z" fill="rgb(187, 103, 53)" fill-opacity="0.55"/><path d="M35,109L59,158L80,116Z" fill="rgb(43, 28, 23)" fill-opacity="0.56"/><path d="M52,94L63,119L41,103Z" fill="rgb(126, 89, 60)" fill-opacity="0.58"/><path d="M101,103L140,126L86,155Z" fill="rgb(89, 142, 179)" fill-opacity="0.47"/><path d="M36,58L61,68L52,55Z" fill="rgb(76, 46, 36)" fill-opacity="0.50"/><path d="M73,18L54,-21L38,2Z" fill="rgb(65, 61, 60)" fill-opacity="0.53"/><path d="M93,100L100,79L125,112Z" fill="rgb(37, 38, 41)" fill-opacity="0.67"/><path d="M93,81L100,57L97,84Z" fill="rgb(143, 111, 100)" fill-opacity="0.42"/><path d="M51,118L39,121L31,74Z" fill="rgb(31, 20, 14)" fill-opacity="0.61"/><path d="M46,58L48,26L57,55Z" fill="rgb(204, 130, 84)" fill-opacity="0.45"/><path d="M83,89L92,61L66,69Z" fill="rgb(252, 220, 181)" fill-opacity="0.54"/><path d="M49,87L34,67L54,64Z" fill="rgb(255, 185, 127)" fill-opacity="0.18"/><path d="M54,15L23,28L23,57Z" fill="rgb(7, 6, 5)" fill-opacity="0.59"/><path d="M55,100L80,113L62,91Z" fill="rgb(255, 184, 175)" fill-opacity="0.29"/><path d="M45,52L35,71L38,8Z" fill="rgb(75, 38, 22)" fill-opacity="0.33"/><path d="M53,64L49,56L41,64Z" fill="rgb(82, 61, 54)" fill-opacity="0.81"/><path d="M76,109L95,80L91,55Z" fill="rgb(235, 187, 123)" fill-opacity="0.44"/><path d="M59,4L80,11L50,30Z" fill="rgb(69, 58, 56)" fill-opacity="0.52"/><path d="M121,117L93,167L148,108Z" fill="rgb(92, 118, 132)" fill-opacity="0.66"/><path d="M44,94L42,91L49,88Z" fill="rgb(159, 120, 74)" fill-opacity="0.50"/><path d="M87,57L72,68L70,55Z" fill="rgb(126, 92, 80)" fill-opacity="0.45"/><path d="M83,22L88,40L68,23Z" fill="rgb(225, 205, 174)" fill-opacity="0.46"/><path d="M80,23L61,74L64,25Z" fill="rgb(238, 215, 185)" fill-opacity="0.50"/><path d="M58,61L60,90L49,97Z" fill="rgb(44, 20, 12)" fill-opacity="0.38"/><path d="M107,132L95,119L105,104Z" fill="rgb(144, 181, 200)" fill-opacity="0.55"/><path d="M110,119L100,137L111,131Z" fill="rgb(67, 91, 118)" fill-opacity="0.50"/><path d="M94,46L100,43L93,71Z" fill="rgb(37, 28, 23)" fill-opacity="0.52"/><path d="M73,44L92,55L64,55Z" fill="rgb(244, 214, 176)" fill-opacity="0.73"/><path d="M83,112L84,147L96,119Z" fill="rgb(222, 192, 151)" fill-opacity="0.49"/><path d="M68,104L69,119L57,112Z" fill="rgb(122, 97, 85)" fill-opacity="0.48"/><path d="M43,137L18,23L-21,81Z" fill="rgb(57, 61, 65)" fill-opacity="0.54"/><path d="M90,49L73,29L94,61Z" fill="rgb(219, 181, 139)" fill-opacity="0.59"/><path d="M54,50L64,23L48,32Z" fill="rgb(227, 157, 111)" fill-opacity="0.47"/><path d="M0,116L28,114L21,187Z" fill="rgb(74, 111, 134)" fill-opacity="0.27"/><path d="M109,-85L164,149L97,48Z" fill="rgb(5, 6, 5)" fill-opacity="0.46"/><path d="M90,105L98,95L75,97Z" fill="rgb(111, 91, 76)" fill-opacity="0.50"/><path d="M41,85L37,100L34,58Z" fill="rgb(69, 48, 34)" fill-opacity="0.66"/><path d="M67,124L92,101L77,122Z" fill="rgb(51, 47, 52)" fill-opacity="0.50"/><path d="M39,91L46,110L65,116Z" fill="rgb(117, 84, 58)" fill-opacity="0.50"/><path d="M100,110L98,102L118,112Z" fill="rgb(136, 170, 188)" fill-opacity="0.55"/><path d="M43,57L41,35L52,25Z" fill="rgb(144, 89, 57)" fill-opacity="0.49"/><path d="M66,38L68,76L51,50Z" fill="rgb(255, 199, 157)" fill-opacity="0.36"/><path d="M9,124L3,116L20,90Z" fill="rgb(51, 58, 59)" fill-opacity="0.39"/><path d="M14,0L-24,72L1,-36Z" fill="rgb(28, 27, 27)" fill-opacity="0.36"/><path d="M76,127L63,126L112,143Z" fill="rgb(109, 90, 76)" fill-opacity="0.60"/><path d="M30,66L19,43L45,58Z" fill="rgb(12, 5, 1)" fill-opacity="0.36"/><path d="M98,68L99,59L92,72Z" fill="rgb(131, 100, 86)" fill-opacity="0.51"/><path d="M88,34L112,42L79,16Z" fill="rgb(64, 55, 53)" fill-opacity="0.54"/><path d="M62,27L49,12L73,4Z" fill="rgb(70, 63, 62)" fill-opacity="0.39"/><path d="M50,124L76,135L14,135Z" fill="rgb(92, 66, 54)" fill-opacity="0.59"/><path d="M73,97L80,93L53,88Z" fill="rgb(77, 57, 53)" fill-opacity="0.67"/><path d="M72,102L61,103L68,96Z" fill="rgb(237, 184, 186)" fill-opacity="0.46"/><path d="M91,99L90,89L68,89Z" fill="rgb(184, 151, 111)" fill-opacity="0.42"/><path d="M68,59L91,59L78,62Z" fill="rgb(195, 151, 122)" fill-opacity="0.62"/><path d="M85,113L96,119L99,101Z" fill="rgb(230, 204, 160)" fill-opacity="0.44"/><path d="M50,125L43,115L79,124Z" fill="rgb(20, 21, 24)" fill-opacity="0.52"/><path d="M74,19L90,48L86,29Z" fill="rgb(219, 178, 138)" fill-opacity="0.45"/><path d="M61,74L86,66L81,81Z" fill="rgb(253, 228, 197)" fill-opacity="0.57"/><path d="M37,100L59,122L46,121Z" fill="rgb(11, 14, 13)" fill-opacity="0.45"/><path d="M45,147L31,105L15,109Z" fill="rgb(32, 60, 87)" fill-opacity="0.43"/><path d="M42,95L65,93L57,87Z" fill="rgb(42, 34, 29)" fill-opacity="0.56"/><path d="M105,42L79,-5L156,3Z" fill="rgb(7, 7, 7)" fill-opacity="0.62"/><path d="M76,97L69,100L74,119Z" fill="rgb(216, 186, 144)" fill-opacity="0.48"/><path d="M90,44L102,40L90,21Z" fill="rgb(74, 67, 66)" fill-opacity="0.45"/><path d="M77,63L70,69L94,73Z" fill="rgb(235, 202, 174)" fill-opacity="0.49"/><path d="M34,74L43,91L37,57Z" fill="rgb(96, 65, 44)" fill-opacity="0.51"/><path d="M8,121L55,134L-23,144Z" fill="rgb(93, 121, 135)" fill-opacity="0.28"/><path d="M98,100L89,102L93,88Z" fill="rgb(76, 69, 66)" fill-opacity="0.55"/><path d="M36,15L11,22L40,-6Z" fill="rgb(50, 51, 53)" fill-opacity="0.64"/><path d="M38,62L45,59L60,61Z" fill="rgb(123, 88, 71)" fill-opacity="0.62"/><path d="M38,43L39,33L46,51Z" fill="rgb(97, 65, 50)" fill-opacity="0.50"/><path d="M90,49L105,67L116,26Z" fill="rgb(22, 21, 20)" fill-opacity="0.44"/><path d="M46,34L45,26L39,39Z" fill="rgb(85, 50, 33)" fill-opacity="0.50"/><path d="M88,66L84,67L75,60Z" fill="rgb(136, 104, 86)" fill-opacity="0.45"/><path d="M58,14L49,22L30,17Z" fill="rgb(21, 18, 19)" fill-opacity="0.60"/><path d="M50,77L46,70L41,83Z" fill="rgb(208, 139, 91)" fill-opacity="0.45"/><path d="M38,105L24,115L45,122Z" fill="rgb(44, 35, 35)" fill-opacity="0.53"/><path d="M64,24L79,21L75,40Z" fill="rgb(212, 206, 183)" fill-opacity="0.49"/><path d="M59,100L45,112L58,107Z" fill="rgb(108, 79, 57)" fill-opacity="0.53"/><path d="M82,116L75,130L93,110Z" fill="rgb(188, 160, 132)" fill-opacity="0.52"/><path d="M69,89L75,87L59,43Z" fill="rgb(252, 208, 173)" fill-opacity="0.57"/><path d="M88,37L77,42L93,70Z" fill="rgb(233, 190, 141)" fill-opacity="0.44"/><path d="M60,88L77,90L79,99Z" fill="rgb(80, 68, 68)" fill-opacity="0.30"/><path d="M70,12L84,-7L81,23Z" fill="rgb(32, 29, 27)" fill-opacity="0.71"/><path d="M75,60L82,65L86,65Z" fill="rgb(124, 91, 79)" fill-opacity="0.53"/><path d="M50,57L46,57L25,65Z" fill="rgb(50, 35, 28)" fill-opacity="0.52"/><path d="M60,6L66,10L30,8Z" fill="rgb(33, 26, 26)" fill-opacity="0.51"/><path d="M60,73L55,61L52,86Z" fill="rgb(98, 57, 40)" fill-opacity="0.55"/><path d="M49,43L46,54L57,59Z" fill="rgb(195, 137, 99)" fill-opacity="0.54"/><path d="M81,121L71,130L48,132Z" fill="rgb(81, 70, 64)" fill-opacity="0.49"/><path d="M63,19L73,20L59,27Z" fill="rgb(121, 100, 90)" fill-opacity="0.51"/><path d="M69,89L57,80L63,96Z" fill="rgb(134, 96, 82)" fill-opacity="0.50"/><path d="M14,28L35,26L0,19Z" fill="rgb(51, 49, 49)" fill-opacity="0.58"/><path d="M77,55L89,60L66,57Z" fill="rgb(88, 58, 45)" fill-opacity="0.28"/><path d="M33,49L28,58L32,85Z" fill="rgb(13, 13, 14)" fill-opacity="0.77"/><path d="M65,21L62,17L49,28Z" fill="rgb(60, 50, 50)" fill-opacity="0.56"/><path d="M29,63L28,116L2,36Z" fill="rgb(60, 62, 65)" fill-opacity="0.57"/><path d="M40,56L34,20L23,37Z" fill="rgb(10, 9, 9)" fill-opacity="0.57"/><path d="M50,95L44,100L54,114Z" fill="rgb(135, 98, 66)" fill-opacity="0.49"/><path d="M68,32L80,33L71,56Z" fill="rgb(234, 222, 189)" fill-opacity="0.41"/><path d="M57,88L63,93L74,94Z" fill="rgb(63, 50, 45)" fill-opacity="0.50"/><path d="M91,88L86,56L81,98Z" fill="rgb(238, 197, 143)" fill-opacity="0.42"/><path d="M87,23L67,7L93,19Z" fill="rgb(50, 45, 42)" fill-opacity="0.45"/><path d="M49,96L79,94L63,97Z" fill="rgb(116, 54, 60)" fill-opacity="0.48"/><path d="M94,67L97,81L98,66Z" fill="rgb(79, 59, 56)" fill-opacity="0.54"/><path d="M97,70L94,61L94,72Z" fill="rgb(58, 40, 34)" fill-opacity="0.53"/><path d="M45,68L28,62L44,63Z" fill="rgb(64, 45, 34)" fill-opacity="0.47"/><path d="M96,44L89,49L96,29Z" fill="rgb(92, 79, 73)" fill-opacity="0.44"/><path d="M76,74L63,64L62,86Z" fill="rgb(255, 219, 187)" fill-opacity="0.50"/><path d="M69,64L72,61L85,63Z" fill="rgb(60, 38, 37)" fill-opacity="0.41"/><path d="M51,28L53,38L54,26Z" fill="rgb(198, 130, 84)" fill-opacity="0.48"/><path d="M79,32L76,18L92,45Z" fill="rgb(206, 174, 140)" fill-opacity="0.39"/><path d="M98,34L103,20L109,49Z" fill="rgb(26, 26, 24)" fill-opacity="0.43"/><path d="M77,98L71,111L79,113Z" fill="rgb(214, 185, 137)" fill-opacity="0.52"/><path d="M86,32L69,24L84,25Z" fill="rgb(214, 195, 166)" fill-opacity="0.55"/><path d="M2,120L-19,116L5,123Z" fill="rgb(34, 52, 65)" fill-opacity="0.53"/><path d="M40,12L41,20L46,13Z" fill="rgb(55, 48, 47)" fill-opacity="0.45"/><path d="M60,84L65,89L60,57Z" fill="rgb(242, 150, 118)" fill-opacity="0.40"/><path d="M74,83L70,84L72,75Z" fill="rgb(242, 182, 145)" fill-opacity="0.48"/><path d="M34,28L38,32L39,23Z" fill="rgb(47, 44, 46)" fill-opacity="0.49"/><path d="M20,73L22,28L11,12Z" fill="rgb(57, 57, 58)" fill-opacity="0.54"/><path d="M83,107L79,108L79,99Z" fill="rgb(153, 125, 92)" fill-opacity="0.53"/><path d="M37,102L52,90L47,96Z" fill="rgb(41, 31, 24)" fill-opacity="0.52"/><path d="M95,82L93,62L85,96Z" fill="rgb(208, 165, 119)" fill-opacity="0.45"/><path d="M37,37L29,36L43,43Z" fill="rgb(8, 6, 6)" fill-opacity="0.44"/><path d="M105,109L100,102L104,148Z" fill="rgb(141, 177, 193)" fill-opacity="0.63"/><path d="M98,40L88,33L78,10Z" fill="rgb(54, 46, 44)" fill-opacity="0.59"/><path d="M40,97L46,94L44,80Z" fill="rgb(142, 98, 64)" fill-opacity="0.45"/><path d="M75,58L93,64L75,60Z" fill="rgb(211, 171, 141)" fill-opacity="0.47"/><path d="M7,122L15,110L28,115Z" fill="rgb(57, 81, 100)" fill-opacity="0.51"/><path d="M72,8L58,2L64,10Z" fill="rgb(68, 62, 59)" fill-opacity="0.44"/><path d="M64,64L82,64L76,70Z" fill="rgb(223, 182, 163)" fill-opacity="0.56"/><path d="M68,120L71,113L77,115Z" fill="rgb(86, 76, 73)" fill-opacity="0.52"/><path d="M100,103L112,73L98,69Z" fill="rgb(35, 35, 36)" fill-opacity="0.52"/><path d="M83,95L75,82L79,94Z" fill="rgb(211, 165, 117)" fill-opacity="0.53"/><path d="M82,116L90,104L92,110Z" fill="rgb(170, 130, 106)" fill-opacity="0.44"/><path d="M34,40L41,19L53,15Z" fill="rgb(6, 7, 9)" fill-opacity="0.52"/><path d="M88,114L94,100L92,143Z" fill="rgb(226, 200, 162)" fill-opacity="0.38"/><path d="M29,59L42,45L41,52Z" fill="rgb(16, 12, 11)" fill-opacity="0.62"/><path d="M77,65L87,74L88,67Z" fill="rgb(244, 215, 175)" fill-opacity="0.51"/><path d="M56,110L54,102L66,107Z" fill="rgb(89, 71, 59)" fill-opacity="0.45"/><path d="M84,95L87,55L94,69Z" fill="rgb(235, 192, 143)" fill-opacity="0.49"/><path d="M78,113L81,102L94,93Z" fill="rgb(117, 98, 79)" fill-opacity="0.45"/><path d="M21,41L34,30L24,57Z" fill="rgb(6, 7, 7)" fill-opacity="0.59"/><path d="M93,25L101,40L82,20Z" fill="rgb(72, 67, 63)" fill-opacity="0.51"/><path d="M27,107L36,109L29,83Z" fill="rgb(62, 66, 70)" fill-opacity="0.47"/><path d="M97,66L98,68L100,60Z" fill="rgb(138, 116, 104)" fill-opacity="0.50"/><path d="M48,125L43,131L33,108Z" fill="rgb(80, 43, 24)" fill-opacity="0.38"/><path d="M63,122L51,113L58,108Z" fill="rgb(74, 57, 53)" fill-opacity="0.43"/><path d="M56,-14L103,33L93,12Z" fill="rgb(18, 19, 20)" fill-opacity="0.62"/><path d="M123,80L109,60L97,70Z" fill="rgb(26, 25, 24)" fill-opacity="0.57"/><path d="M116,123L105,105L114,112Z" fill="rgb(139, 176, 185)" fill-opacity="0.47"/><path d="M74,32L58,29L61,24Z" fill="rgb(214, 179, 144)" fill-opacity="0.46"/><path d="M75,116L59,117L74,128Z" fill="rgb(48, 45, 49)" fill-opacity="0.45"/><path d="M56,56L50,38L59,31Z" fill="rgb(233, 176, 135)" fill-opacity="0.53"/><path d="M-1,70L15,111L-3,118Z" fill="rgb(49, 49, 49)" fill-opacity="0.56"/><path d="M108,127L108,110L111,122Z" fill="rgb(76, 96, 124)" fill-opacity="0.50"/><path d="M108,109L121,112L113,116Z" fill="rgb(136, 171, 183)" fill-opacity="0.48"/><path d="M66,84L68,83L71,99Z" fill="rgb(143, 101, 98)" fill-opacity="0.40"/><path d="M41,55L49,55L48,27Z" fill="rgb(166, 108, 73)" fill-opacity="0.40"/><path d="M88,61L93,60L74,47Z" fill="rgb(235, 207, 170)" fill-opacity="0.41"/><path d="M26,105L30,108L13,113Z" fill="rgb(54, 71, 83)" fill-opacity="0.50"/><path d="M43,70L51,78L51,86Z" fill="rgb(203, 148, 108)" fill-opacity="0.51"/><path d="M100,82L96,76L91,77Z" fill="rgb(155, 125, 110)" fill-opacity="0.52"/><path d="M100,59L93,65L97,55Z" fill="rgb(79, 65, 65)" fill-opacity="0.42"/><path d="M72,98L66,112L80,108Z" fill="rgb(225, 188, 145)" fill-opacity="0.32"/><path d="M64,95L61,91L52,106Z" fill="rgb(158, 94, 88)" fill-opacity="0.50"/><path d="M58,99L59,97L77,99Z" fill="rgb(234, 155, 172)" fill-opacity="0.39"/><path d="M127,123L131,117L119,112Z" fill="rgb(106, 135, 148)" fill-opacity="0.50"/><path d="M87,91L81,97L93,95Z" fill="rgb(168, 133, 100)" fill-opacity="0.55"/><path d="M95,100L90,130L100,110Z" fill="rgb(210, 211, 178)" fill-opacity="0.38"/><path d="M75,47L88,57L63,49Z" fill="rgb(245, 221, 185)" fill-opacity="0.50"/><path d="M78,90L76,98L78,99Z" fill="rgb(91, 66, 50)" fill-opacity="0.49"/><path d="M77,98L76,98L82,109Z" fill="rgb(199, 165, 120)" fill-opacity="0.50"/><path d="M11,18L6,111L32,97Z" fill="rgb(60, 60, 62)" fill-opacity="0.39"/><path d="M48,12L39,18L42,14Z" fill="rgb(60, 54, 51)" fill-opacity="0.50"/><path d="M98,41L156,115L115,69Z" fill="rgb(5, 4, 3)" fill-opacity="0.54"/><path d="M36,59L35,90L33,59Z" fill="rgb(57, 40, 32)" fill-opacity="0.50"/><path d="M89,33L79,24L91,74Z" fill="rgb(231, 178, 131)" fill-opacity="0.18"/><path d="M60,76L54,91L56,73Z" fill="rgb(89, 56, 42)" fill-opacity="0.61"/><path d="M61,63L64,55L66,79Z" fill="rgb(252, 221, 185)" fill-opacity="0.67"/><path d="M74,53L65,59L55,56Z" fill="rgb(241, 174, 137)" fill-opacity="0.47"/><path d="M113,104L94,93L109,108Z" fill="rgb(42, 42, 47)" fill-opacity="0.60"/><path d="M62,67L62,77L55,48Z" fill="rgb(216, 143, 99)" fill-opacity="0.43"/><path d="M113,68L111,66L114,67Z" fill="rgb(79, 79, 66)" fill-opacity="0.49"/><path d="M20,118L33,154L14,116Z" fill="rgb(72, 101, 123)" fill-opacity="0.56"/><path d="M50,62L45,62L42,65Z" fill="rgb(39, 27, 28)" fill-opacity="0.50"/><path d="M72,116L68,109L55,112Z" fill="rgb(127, 98, 86)" fill-opacity="0.47"/><path d="M97,81L89,96L99,70Z" fill="rgb(129, 104, 86)" fill-opacity="0.56"/><path d="M24,113L32,106L34,123Z" fill="rgb(24, 51, 73)" fill-opacity="0.40"/><path d="M98,73L96,82L98,81Z" fill="rgb(152, 117, 114)" fill-opacity="0.56"/><path d="M75,110L83,112L77,112Z" fill="rgb(121, 101, 82)" fill-opacity="0.50"/><path d="M97,85L94,72L97,73Z" fill="rgb(85, 63, 56)" fill-opacity="0.61"/><path d="M45,85L51,84L50,72Z" fill="rgb(204, 151, 112)" fill-opacity="0.39"/><path d="M41,15L34,35L44,16Z" fill="rgb(37, 35, 35)" fill-opacity="0.39"/><path d="M40,123L60,128L42,128Z" fill="rgb(88, 62, 49)" fill-opacity="0.47"/><path d="M80,20L60,20L73,21Z" fill="rgb(101, 87, 76)" fill-opacity="0.64"/><path d="M85,69L81,80L64,69Z" fill="rgb(248, 229, 200)" fill-opacity="0.41"/><path d="M84,57L75,56L70,59Z" fill="rgb(107, 78, 65)" fill-opacity="0.52"/><path d="M81,56L87,61L76,57Z" fill="rgb(131, 102, 85)" fill-opacity="0.57"/><path d="M111,117L114,107L114,131Z" fill="rgb(140, 175, 177)" fill-opacity="0.47"/><path d="M95,120L100,111L94,132Z" fill="rgb(155, 171, 177)" fill-opacity="0.52"/><path d="M62,117L55,109L65,116Z" fill="rgb(110, 84, 73)" fill-opacity="0.46"/><path d="M29,80L31,88L33,73Z" fill="rgb(22, 22, 24)" fill-opacity="0.57"/><path d="M84,98L80,87L67,75Z" fill="rgb(221, 167, 121)" fill-opacity="0.40"/><path d="M46,41L60,25L49,30Z" fill="rgb(190, 131, 88)" fill-opacity="0.44"/><path d="M79,98L72,95L79,92Z" fill="rgb(69, 46, 38)" fill-opacity="0.44"/><path d="M65,74L75,80L58,48Z" fill="rgb(254, 219, 177)" fill-opacity="0.46"/><path d="M39,5L40,13L61,8Z" fill="rgb(28, 22, 21)" fill-opacity="0.52"/><path d="M51,26L38,34L53,28Z" fill="rgb(103, 65, 47)" fill-opacity="0.44"/><path d="M28,69L33,51L28,48Z" fill="rgb(8, 10, 11)" fill-opacity="0.53"/><path d="M81,104L75,112L81,95Z" fill="rgb(186, 156, 115)" fill-opacity="0.41"/><path d="M44,47L37,41L37,45Z" fill="rgb(86, 68, 63)" fill-opacity="0.39"/><path d="M107,81L97,40L101,80Z" fill="rgb(33, 31, 32)" fill-opacity="0.58"/><path d="M34,56L39,54L50,59Z" fill="rgb(74, 43, 28)" fill-opacity="0.43"/><path d="M70,10L53,16L56,21Z" fill="rgb(76, 67, 65)" fill-opacity="0.41"/><path d="M111,117L105,131L108,109Z" fill="rgb(96, 123, 150)" fill-opacity="0.49"/><path d="M84,89L74,82L86,76Z" fill="rgb(250, 204, 160)" fill-opacity="0.51"/><path d="M43,91L40,86L55,89Z" fill="rgb(134, 96, 65)" fill-opacity="0.50"/><path d="M96,22L127,47L118,64Z" fill="rgb(16, 16, 15)" fill-opacity="0.50"/><path d="M32,123L44,127L21,136Z" fill="rgb(51, 66, 84)" fill-opacity="0.54"/><path d="M52,93L63,87L45,94Z" fill="rgb(26, 21, 21)" fill-opacity="0.52"/><path d="M36,74L39,84L34,93Z" fill="rgb(50, 37, 31)" fill-opacity="0.42"/><path d="M46,66L53,62L50,72Z" fill="rgb(154, 121, 112)" fill-opacity="0.53"/><path d="M60,3L78,5L21,-20Z" fill="rgb(30, 30, 29)" fill-opacity="0.69"/><path d="M30,81L44,123L41,103Z" fill="rgb(20, 18, 18)" fill-opacity="0.46"/><path d="M67,30L73,23L80,36Z" fill="rgb(222, 209, 184)" fill-opacity="0.51"/><path d="M33,105L39,106L39,124Z" fill="rgb(59, 37, 29)" fill-opacity="0.46"/><path d="M62,88L63,84L69,85Z" fill="rgb(189, 137, 115)" fill-opacity="0.45"/><path d="M39,81L36,69L47,66Z" fill="rgb(122, 81, 52)" fill-opacity="0.37"/><path d="M49,62L60,60L37,60Z" fill="rgb(127, 92, 75)" fill-opacity="0.50"/><path d="M96,69L121,94L112,105Z" fill="rgb(29, 27, 28)" fill-opacity="0.50"/><path d="M45,90L39,63L44,101Z" fill="rgb(134, 91, 59)" fill-opacity="0.47"/><path d="M98,125L102,129L98,147Z" fill="rgb(74, 89, 109)" fill-opacity="0.52"/><path d="M69,104L56,100L75,97Z" fill="rgb(222, 169, 163)" fill-opacity="0.45"/><path d="M81,69L90,64L88,58Z" fill="rgb(226, 194, 160)" fill-opacity="0.45"/><path d="M58,29L49,34L55,37Z" fill="rgb(229, 156, 101)" fill-opacity="0.44"/><path d="M83,24L83,27L71,23Z" fill="rgb(210, 192, 166)" fill-opacity="0.58"/><path d="M64,58L69,61L74,60Z" fill="rgb(215, 149, 116)" fill-opacity="0.53"/><path d="M50,113L45,110L36,88Z" fill="rgb(59, 44, 34)" fill-opacity="0.49"/><path d="M-7,52L-10,28L23,-13Z" fill="rgb(45, 45, 47)" fill-opacity="0.72"/><path d="M93,148L41,149L83,121Z" fill="rgb(185, 132, 89)" fill-opacity="0.17"/><path d="M118,134L135,154L139,107Z" fill="rgb(88, 108, 121)" fill-opacity="0.47"/><path d="M63,67L75,89L71,89Z" fill="rgb(254, 215, 188)" fill-opacity="0.43"/><path d="M105,106L105,124L102,108Z" fill="rgb(151, 194, 204)" fill-opacity="0.49"/><path d="M89,57L97,64L80,51Z" fill="rgb(202, 169, 133)" fill-opacity="0.47"/><path d="M92,30L94,40L87,30Z" fill="rgb(51, 44, 43)" fill-opacity="0.51"/><path d="M73,112L70,109L78,101Z" fill="rgb(226, 191, 150)" fill-opacity="0.50"/><path d="M44,59L52,59L51,57Z" fill="rgb(41, 31, 28)" fill-opacity="0.46"/><path d="M47,9L39,8L31,23Z" fill="rgb(19, 17, 17)" fill-opacity="0.71"/><path d="M57,16L63,12L54,12Z" fill="rgb(37, 30, 29)" fill-opacity="0.49"/><path d="M74,122L60,130L85,111Z" fill="rgb(52, 44, 45)" fill-opacity="0.63"/><path d="M49,94L57,87L60,91Z" fill="rgb(29, 22, 21)" fill-opacity="0.58"/><path d="M68,88L71,82L61,89Z" fill="rgb(182, 143, 121)" fill-opacity="0.49"/><path d="M98,59L90,74L98,58Z" fill="rgb(127, 102, 82)" fill-opacity="0.65"/><path d="M68,71L79,71L75,79Z" fill="rgb(252, 234, 206)" fill-opacity="0.50"/><path d="M98,28L92,26L96,44Z" fill="rgb(70, 64, 62)" fill-opacity="0.43"/><path d="M82,117L90,114L78,125Z" fill="rgb(185, 163, 139)" fill-opacity="0.48"/><path d="M107,104L143,121L124,114Z" fill="rgb(44, 51, 59)" fill-opacity="0.50"/><path d="M82,116L97,92L84,107Z" fill="rgb(76, 68, 64)" fill-opacity="0.51"/><path d="M91,101L98,93L107,101Z" fill="rgb(45, 44, 47)" fill-opacity="0.58"/><path d="M9,30L37,14L12,14Z" fill="rgb(53, 53, 55)" fill-opacity="0.60"/><path d="M68,58L65,67L67,77Z" fill="rgb(251, 203, 160)" fill-opacity="0.41"/><path d="M68,102L80,100L65,98Z" fill="rgb(234, 191, 171)" fill-opacity="0.36"/><path d="M80,116L80,120L85,121Z" fill="rgb(165, 149, 129)" fill-opacity="0.51"/><path d="M86,31L77,43L88,37Z" fill="rgb(224, 190, 151)" fill-opacity="0.50"/><path d="M12,8L29,16L-10,83Z" fill="rgb(52, 52, 54)" fill-opacity="0.59"/><path d="M75,21L82,26L77,20Z" fill="rgb(193, 168, 145)" fill-opacity="0.50"/><path d="M60,19L75,16L60,17Z" fill="rgb(45, 43, 42)" fill-opacity="0.50"/><path d="M101,122L92,148L99,123Z" fill="rgb(88, 109, 128)" fill-opacity="0.45"/><path d="M49,54L62,57L43,56Z" fill="rgb(190, 142, 112)" fill-opacity="0.48"/><path d="M63,104L73,103L59,107Z" fill="rgb(148, 123, 101)" fill-opacity="0.48"/><path d="M76,56L76,63L75,56Z" fill="rgb(105, 75, 59)" fill-opacity="0.50"/><path d="M38,23L36,34L36,24Z" fill="rgb(54, 44, 44)" fill-opacity="0.45"/><path d="M34,65L47,62L59,63Z" fill="rgb(64, 44, 38)" fill-opacity="0.44"/><path d="M64,36L61,62L56,41Z" fill="rgb(242, 196, 160)" fill-opacity="0.58"/><path d="M101,28L109,44L97,30Z" fill="rgb(26, 25, 25)" fill-opacity="0.50"/><path d="M38,38L43,31L44,39Z" fill="rgb(88, 55, 41)" fill-opacity="0.47"/><path d="M50,107L68,106L62,103Z" fill="rgb(105, 82, 67)" fill-opacity="0.33"/><path d="M79,92L89,101L65,77Z" fill="rgb(216, 181, 146)" fill-opacity="0.57"/><path d="M56,127L86,141L25,132Z" fill="rgb(110, 84, 65)" fill-opacity="0.51"/><path d="M93,79L94,77L84,65Z" fill="rgb(234, 193, 142)" fill-opacity="0.52"/><path d="M47,106L54,107L48,111Z" fill="rgb(122, 88, 60)" fill-opacity="0.50"/><path d="M92,36L91,53L94,47Z" fill="rgb(86, 73, 69)" fill-opacity="0.45"/><path d="M62,59L65,85L65,61Z" fill="rgb(252, 234, 207)" fill-opacity="0.40"/><path d="M77,91L73,85L69,88Z" fill="rgb(243, 226, 214)" fill-opacity="0.25"/><path d="M67,95L73,96L55,85Z" fill="rgb(76, 50, 47)" fill-opacity="0.49"/><path d="M52,70L60,67L61,76Z" fill="rgb(127, 69, 45)" fill-opacity="0.37"/><path d="M41,55L52,57L36,56Z" fill="rgb(117, 81, 61)" fill-opacity="0.67"/><path d="M36,100L38,111L29,96Z" fill="rgb(64, 62, 61)" fill-opacity="0.39"/><path d="M94,97L92,97L94,89Z" fill="rgb(77, 67, 58)" fill-opacity="0.54"/><path d="M27,100L8,109L13,105Z" fill="rgb(67, 67, 64)" fill-opacity="0.46"/><path d="M83,21L91,33L77,17Z" fill="rgb(44, 32, 29)" fill-opacity="0.49"/><path d="M49,121L72,122L59,127Z" fill="rgb(22, 19, 23)" fill-opacity="0.35"/><path d="M49,50L65,30L66,23Z" fill="rgb(222, 176, 135)" fill-opacity="0.51"/><path d="M81,62L74,63L73,61Z" fill="rgb(75, 52, 43)" fill-opacity="0.51"/><path d="M63,13L58,9L77,15Z" fill="rgb(74, 66, 64)" fill-opacity="0.47"/><path d="M98,42L123,48L95,38Z" fill="rgb(20, 20, 18)" fill-opacity="0.59"/><path d="M71,-24L214,18L87,13Z" fill="rgb(1, 2, 1)" fill-opacity="0.23"/><path d="M79,110L79,121L73,128Z" fill="rgb(69, 60, 57)" fill-opacity="0.49"/><path d="M46,92L45,96L59,92Z" fill="rgb(34, 22, 19)" fill-opacity="0.52"/><path d="M11,86L21,43L35,107Z" fill="rgb(60, 63, 65)" fill-opacity="0.39"/><path d="M52,89L61,84L54,83Z" fill="rgb(112, 73, 59)" fill-opacity="0.51"/><path d="M92,59L71,44L81,36Z" fill="rgb(235, 205, 161)" fill-opacity="0.38"/><path d="M51,68L53,64L46,64Z" fill="rgb(189, 166, 168)" fill-opacity="0.25"/><path d="M17,47L2,34L26,14Z" fill="rgb(56, 57, 57)" fill-opacity="0.43"/><path d="M92,100L79,135L96,105Z" fill="rgb(223, 179, 146)" fill-opacity="0.31"/><path d="M96,10L67,18L89,20Z" fill="rgb(29, 28, 26)" fill-opacity="0.44"/><path d="M98,58L101,47L92,65Z" fill="rgb(63, 53, 52)" fill-opacity="0.49"/><path d="M50,51L62,24L69,26Z" fill="rgb(224, 179, 141)" fill-opacity="0.30"/><path d="M98,113L98,102L92,123Z" fill="rgb(207, 212, 178)" fill-opacity="0.48"/><path d="M10,0L-8,-7L-1,6Z" fill="rgb(27, 29, 31)" fill-opacity="0.44"/><path d="M41,71L44,91L44,70Z" fill="rgb(168, 105, 65)" fill-opacity="0.39"/><path d="M18,118L-13,113L5,120Z" fill="rgb(50, 78, 96)" fill-opacity="0.38"/><path d="M67,5L77,16L69,-18Z" fill="rgb(55, 54, 49)" fill-opacity="0.21"/><path d="M101,126L117,131L96,135Z" fill="rgb(137, 170, 187)" fill-opacity="0.60"/><path d="M122,116L134,115L113,123Z" fill="rgb(116, 145, 157)" fill-opacity="0.51"/><path d="M64,113L68,116L56,122Z" fill="rgb(63, 55, 52)" fill-opacity="0.42"/><path d="M92,97L87,104L83,98Z" fill="rgb(119, 100, 86)" fill-opacity="0.54"/><path d="M61,69L63,74L61,58Z" fill="rgb(250, 187, 148)" fill-opacity="0.50"/><path d="M51,98L44,104L62,96Z" fill="rgb(133, 81, 66)" fill-opacity="0.50"/><path d="M66,106L74,116L67,110Z" fill="rgb(160, 129, 109)" fill-opacity="0.51"/><path d="M67,61L70,60L73,67Z" fill="rgb(184, 132, 104)" fill-opacity="0.46"/><path d="M92,30L83,16L94,27Z" fill="rgb(74, 69, 67)" fill-opacity="0.49"/><path d="M92,38L98,34L92,48Z" fill="rgb(82, 74, 73)" fill-opacity="0.47"/><path d="M107,125L110,114L107,108Z" fill="rgb(97, 123, 148)" fill-opacity="0.54"/><path d="M129,113L146,91L112,77Z" fill="rgb(19, 17, 17)" fill-opacity="0.50"/><path d="M85,94L93,90L71,83Z" fill="rgb(215, 165, 117)" fill-opacity="0.34"/><path d="M93,106L99,106L95,122Z" fill="rgb(221, 214, 177)" fill-opacity="0.36"/><path d="M43,124L51,132L50,121Z" fill="rgb(67, 46, 38)" fill-opacity="0.56"/><path d="M7,121L8,112L3,118Z" fill="rgb(45, 63, 76)" fill-opacity="0.48"/><path d="M98,102L96,83L110,102Z" fill="rgb(39, 38, 42)" fill-opacity="0.59"/><path d="M59,111L52,95L54,115Z" fill="rgb(103, 72, 53)" fill-opacity="0.49"/><path d="M52,62L57,63L60,77Z" fill="rgb(99, 61, 47)" fill-opacity="0.52"/><path d="M54,21L67,11L59,21Z" fill="rgb(76, 69, 67)" fill-opacity="0.45"/><path d="M37,53L31,62L43,50Z" fill="rgb(25, 16, 12)" fill-opacity="0.56"/><path d="M50,85L44,93L46,76Z" fill="rgb(182, 133, 91)" fill-opacity="0.46"/><path d="M88,66L87,85L77,82Z" fill="rgb(250, 217, 170)" fill-opacity="0.30"/><path d="M100,108L95,101L105,107Z" fill="rgb(141, 162, 174)" fill-opacity="0.62"/><path d="M68,67L73,63L77,68Z" fill="rgb(206, 158, 131)" fill-opacity="0.44"/><path d="M84,93L74,82L78,93Z" fill="rgb(208, 165, 123)" fill-opacity="0.47"/><path d="M104,106L102,124L99,102Z" fill="rgb(136, 169, 188)" fill-opacity="0.54"/><path d="M49,24L42,18L42,30Z" fill="rgb(5, 4, 3)" fill-opacity="0.49"/><path d="M47,102L49,93L51,99Z" fill="rgb(143, 109, 77)" fill-opacity="0.34"/><path d="M69,53L85,55L72,30Z" fill="rgb(242, 223, 187)" fill-opacity="0.27"/><path d="M14,125L32,129L15,139Z" fill="rgb(79, 109, 132)" fill-opacity="0.50"/><path d="M60,39L64,51L66,28Z" fill="rgb(234, 200, 165)" fill-opacity="0.59"/><path d="M47,48L50,54L52,38Z" fill="rgb(198, 139, 97)" fill-opacity="0.47"/><path d="M48,86L52,72L45,82Z" fill="rgb(199, 145, 104)" fill-opacity="0.55"/><path d="M36,25L39,40L39,25Z" fill="rgb(43, 36, 34)" fill-opacity="0.50"/><path d="M33,99L33,109L28,108Z" fill="rgb(49, 68, 85)" fill-opacity="0.47"/><path d="M117,117L108,108L122,114Z" fill="rgb(135, 168, 180)" fill-opacity="0.60"/><path d="M55,23L49,21L53,15Z" fill="rgb(28, 23, 20)" fill-opacity="0.48"/><path d="M9,114L9,126L18,123Z" fill="rgb(63, 91, 110)" fill-opacity="0.58"/><path d="M42,44L45,32L42,62Z" fill="rgb(128, 78, 49)" fill-opacity="0.45"/><path d="M17,66L27,60L32,106Z" fill="rgb(59, 63, 65)" fill-opacity="0.55"/><path d="M92,31L86,20L98,32Z" fill="rgb(77, 70, 67)" fill-opacity="0.50"/><path d="M60,37L56,51L54,39Z" fill="rgb(236, 182, 144)" fill-opacity="0.55"/><path d="M117,112L109,135L114,109Z" fill="rgb(138, 172, 177)" fill-opacity="0.48"/><path d="M44,91L39,87L40,78Z" fill="rgb(118, 78, 54)" fill-opacity="0.48"/><path d="M19,112L18,109L4,129Z" fill="rgb(64, 88, 104)" fill-opacity="0.56"/><path d="M105,59L97,38L105,75Z" fill="rgb(25, 24, 25)" fill-opacity="0.50"/><path d="M90,63L92,54L86,44Z" fill="rgb(224, 180, 139)" fill-opacity="0.49"/><path d="M80,63L82,62L70,63Z" fill="rgb(72, 46, 39)" fill-opacity="0.51"/></svg>