<svg xmlns="http://www.w3.org/2000/svg" viewBox="0 0 128 128" clip-path="url(#clip)" width="256" height="256"><defs><clipPath id="clip" clipPathUnits="objectBoundingBox"><rect x="0" y="0" width="128" height="128"/></clipPath></defs><rect x="0" y="0" width="128" height="128" fill="rgb(48, 50, 53)"/><path d="M61,124L53,-18L105,71Z" fill="rgb(254, 205, 162)" fill-opacity="0.65"/><path d="M101,25L42,96L43,29Z" fill="rgb(255, 206, 151)" fill-opacity="0.46"/><path d="M27,33L139,5L55,-37Z" fill="rgb(6, 4, 3)" fill-opacity="0.64"/><path d="M117,106L50,99L188,216Z" fill="rgb(158, 158, 151)" fill-opacity="0.83"/><path d="M102,118L75,-9L79,140Z" fill="rgb(255, 226, 169)" fill-opacity="0.29"/><path d="M96,96L271,58L87,-4Z" fill="rgb(3, 0, 0)" fill-opacity="0.63"/><path d="M59,64L71,136L41,108Z" fill="rgb(97, 57, 42)" fill-opacity="0.62"/><path d="M59,63L95,68L69,91Z" fill="rgb(255, 217, 181)" fill-opacity="0.76"/><path d="M-18,123L21,110L56,149Z" fill="rgb(73, 119, 153)" fill-opacity="0.48"/><path d="M83,97L68,134L91,106Z" fill="rgb(72, 49, 40)" fill-opacity="0.61"/><path d="M43,58L74,17L97,43Z" fill="rgb(255, 229, 196)" fill-opacity="0.36"/><path d="M82,114L65,136L36,113Z" fill="rgb(29, 23, 22)" fill-opacity="0.51"/><path d="M53,27L48,50L95,58Z" fill="rgb(254, 204, 161)" fill-opacity="0.52"/></svg>