<svg xmlns="http://www.w3.org/2000/svg" viewBox="0 0 128 85.33333333333333" clip-path="url(#clip)" width="1401" height="934"><defs><clipPath id="clip" clipPathUnits="objectBoundingBox"><rect x="0" y="0" width="128" height="85.33333333333333"/></clipPath></defs><rect x="0" y="0" width="128" height="85.33333333333333" fill="rgb(136, 158, 149)"/><path d="M-52,39L86,36L100,-10Z" fill="rgb(224, 238, 255)" fill-opacity="0.81"/><path d="M-26,49L159,50L63,247Z" fill="rgb(107, 87, 30)" fill-opacity="0.46"/><path d="M127,-53L90,51L134,37Z" fill="rgb(255, 251, 252)" fill-opacity="0.72"/><path d="M-35,50L21,47L11,72Z" fill="rgb(13, 13, 17)" fill-opacity="0.54"/><path d="M29,69L13,39L97,53Z" fill="rgb(207, 180, 173)" fill-opacity="0.48"/><path d="M108,80L78,52L105,-7Z" fill="rgb(169, 156, 141)" fill-opacity="0.79"/><path d="M62,24L-42,6L85,-13Z" fill="rgb(103, 171, 233)" fill-opacity="0.73"/><path d="M66,11L113,15L92,5Z" fill="rgb(74, 115, 154)" fill-opacity="0.48"/><path d="M-35,56L3,17L90,21Z" fill="rgb(255, 255, 255)" fill-opacity="0.65"/><path d="M17,65L46,63L21,51Z" fill="rgb(216, 205, 192)" fill-opacity="0.45"/><path d="M15,41L100,40L28,35Z" fill="rgb(118, 53, 35)" fill-opacity="0.38"/><path d="M19,67L10,67L19,44Z" fill="rgb(5, 7, 1)" fill-opacity="0.52"/><path d="M41,17L-19,38L13,48Z" fill="rgb(249, 253, 255)" fill-opacity="0.57"/><path d="M43,35L93,35L83,10Z" fill="rgb(255, 255, 255)" fill-opacity="0.71"/><path d="M132,27L196,-7L93,0Z" fill="rgb(251, 253, 255)" fill-opacity="0.88"/><path d="M122,51L133,35L128,73Z" fill="rgb(2, 0, 5)" fill-opacity="0.57"/><path d="M35,72L51,63L89,67Z" fill="rgb(44, 34, 51)" fill-opacity="0.46"/><path d="M-11,11L45,17L1,20Z" fill="rgb(141, 189, 231)" fill-opacity="0.88"/><path d="M138,44L107,-40L105,40Z" fill="rgb(250, 254, 255)" fill-opacity="0.74"/><path d="M145,61L111,70L113,53Z" fill="rgb(29, 0, 30)" fill-opacity="0.30"/><path d="M100,25L107,27L95,27Z" fill="rgb(16, 23, 23)" fill-opacity="0.47"/><path d="M14,45L7,56L20,58Z" fill="rgb(0, 0, 0)" fill-opacity="0.41"/><path d="M4,39L6,51L23,42Z" fill="rgb(233, 241, 250)" fill-opacity="0.54"/><path d="M26,44L32,44L27,58Z" fill="rgb(49, 54, 57)" fill-opacity="0.51"/><path d="M44,35L49,39L96,36Z" fill="rgb(222, 126, 87)" fill-opacity="0.48"/><path d="M91,7L105,7L89,18Z" fill="rgb(80, 55, 37)" fill-opacity="0.41"/><path d="M-16,85L67,67L215,85Z" fill="rgb(102, 133, 59)" fill-opacity="0.55"/><path d="M81,5L-59,-7L78,17Z" fill="rgb(95, 162, 219)" fill-opacity="0.47"/><path d="M41,59L41,72L49,58Z" fill="rgb(60, 54, 48)" fill-opacity="0.48"/><path d="M108,59L127,51L81,34Z" fill="rgb(148, 124, 110)" fill-opacity="0.57"/><path d="M37,37L15,38L30,45Z" fill="rgb(121, 118, 112)" fill-opacity="0.53"/><path d="M75,37L78,61L78,43Z" fill="rgb(77, 60, 59)" fill-opacity="0.52"/><path d="M4,43L5,61L-11,48Z" fill="rgb(46, 48, 50)" fill-opacity="0.54"/><path d="M96,12L59,-6L84,-4Z" fill="rgb(242, 243, 245)" fill-opacity="0.52"/><path d="M68,64L44,64L76,60Z" fill="rgb(214, 190, 173)" fill-opacity="0.51"/><path d="M49,25L40,-3L63,23Z" fill="rgb(121, 177, 221)" fill-opacity="0.50"/><path d="M68,33L10,37L28,15Z" fill="rgb(255, 255, 255)" fill-opacity="0.66"/><path d="M84,4L44,-9L117,5Z" fill="rgb(255, 254, 253)" fill-opacity="0.72"/><path d="M99,9L86,8L107,12Z" fill="rgb(63, 72, 77)" fill-opacity="0.50"/><path d="M37,44L16,64L42,68Z" fill="rgb(189, 179, 161)" fill-opacity="0.47"/><path d="M36,60L72,61L70,58Z" fill="rgb(2, 0, 0)" fill-opacity="0.27"/><path d="M88,69L92,64L67,65Z" fill="rgb(36, 28, 40)" fill-opacity="0.48"/><path d="M118,15L111,17L99,3Z" fill="rgb(153, 186, 216)" fill-opacity="0.48"/><path d="M22,73L17,70L-18,70Z" fill="rgb(176, 177, 166)" fill-opacity="0.73"/><path d="M82,48L82,74L80,54Z" fill="rgb(206, 184, 166)" fill-opacity="0.50"/><path d="M88,64L95,77L99,32Z" fill="rgb(183, 168, 145)" fill-opacity="0.61"/><path d="M41,39L60,35L32,37Z" fill="rgb(221, 158, 128)" fill-opacity="0.49"/><path d="M125,45L234,103L125,65Z" fill="rgb(0, 0, 0)" fill-opacity="0.74"/><path d="M63,45L60,65L60,48Z" fill="rgb(102, 98, 92)" fill-opacity="0.55"/><path d="M108,63L88,53L90,72Z" fill="rgb(187, 169, 150)" fill-opacity="0.48"/><path d="M112,69L123,71L95,73Z" fill="rgb(172, 165, 158)" fill-opacity="0.52"/><path d="M101,4L105,5L100,14Z" fill="rgb(95, 92, 86)" fill-opacity="0.57"/><path d="M1,70L18,58L-25,58Z" fill="rgb(83, 81, 47)" fill-opacity="0.51"/><path d="M54,42L54,55L51,45Z" fill="rgb(56, 50, 51)" fill-opacity="0.56"/><path d="M86,41L78,37L96,38Z" fill="rgb(112, 82, 72)" fill-opacity="0.46"/><path d="M55,76L54,72L15,72Z" fill="rgb(147, 161, 98)" fill-opacity="0.63"/><path d="M-39,72L181,146L29,74Z" fill="rgb(100, 124, 67)" fill-opacity="0.90"/><path d="M119,46L109,44L107,73Z" fill="rgb(125, 99, 88)" fill-opacity="0.56"/><path d="M42,47L46,43L46,53Z" fill="rgb(30, 31, 34)" fill-opacity="0.44"/><path d="M95,49L94,35L111,49Z" fill="rgb(189, 178, 158)" fill-opacity="0.50"/><path d="M88,5L103,21L92,29Z" fill="rgb(153, 151, 148)" fill-opacity="0.59"/><path d="M72,72L106,71L52,64Z" fill="rgb(66, 38, 81)" fill-opacity="0.30"/><path d="M-39,10L22,44L7,47Z" fill="rgb(227, 239, 247)" fill-opacity="0.76"/><path d="M145,80L107,63L160,71Z" fill="rgb(106, 92, 83)" fill-opacity="0.58"/><path d="M122,60L125,66L122,35Z" fill="rgb(176, 163, 149)" fill-opacity="0.53"/><path d="M23,62L69,65L106,61Z" fill="rgb(174, 159, 140)" fill-opacity="0.67"/><path d="M66,35L92,35L88,10Z" fill="rgb(255, 255, 255)" fill-opacity="0.53"/><path d="M24,69L15,67L31,63Z" fill="rgb(56, 48, 64)" fill-opacity="0.42"/><path d="M93,40L93,28L83,47Z" fill="rgb(119, 102, 92)" fill-opacity="0.39"/><path d="M30,35L-47,36L10,18Z" fill="rgb(255, 255, 255)" fill-opacity="0.62"/><path d="M83,6L75,20L91,8Z" fill="rgb(121, 199, 255)" fill-opacity="0.31"/><path d="M60,52L62,35L62,54Z" fill="rgb(50, 43, 48)" fill-opacity="0.53"/><path d="M85,10L81,4L44,22Z" fill="rgb(130, 183, 228)" fill-opacity="0.54"/><path d="M99,84L121,80L52,74Z" fill="rgb(136, 155, 81)" fill-opacity="0.58"/><path d="M86,7L62,-4L125,-3Z" fill="rgb(254, 255, 255)" fill-opacity="0.51"/><path d="M110,50L123,44L121,39Z" fill="rgb(151, 116, 104)" fill-opacity="0.49"/><path d="M74,33L68,47L68,54Z" fill="rgb(106, 84, 79)" fill-opacity="0.51"/><path d="M71,62L68,46L69,37Z" fill="rgb(95, 88, 83)" fill-opacity="0.51"/><path d="M33,7L20,21L-52,6Z" fill="rgb(112, 172, 225)" fill-opacity="0.49"/><path d="M139,24L114,45L105,14Z" fill="rgb(255, 255, 255)" fill-opacity="0.52"/><path d="M18,62L-2,64L-7,74Z" fill="rgb(46, 45, 36)" fill-opacity="0.62"/><path d="M20,41L30,38L20,37Z" fill="rgb(86, 83, 77)" fill-opacity="0.49"/><path d="M35,66L25,54L19,61Z" fill="rgb(204, 197, 182)" fill-opacity="0.49"/><path d="M89,60L84,46L85,62Z" fill="rgb(112, 105, 96)" fill-opacity="0.53"/><path d="M74,61L92,59L67,58Z" fill="rgb(88, 73, 71)" fill-opacity="0.52"/><path d="M108,66L101,72L107,51Z" fill="rgb(186, 173, 158)" fill-opacity="0.51"/><path d="M116,46L119,64L116,63Z" fill="rgb(62, 53, 45)" fill-opacity="0.55"/><path d="M43,55L30,74L45,37Z" fill="rgb(188, 173, 150)" fill-opacity="0.53"/><path d="M89,64L87,73L86,64Z" fill="rgb(0, 0, 0)" fill-opacity="0.45"/><path d="M68,44L64,49L60,39Z" fill="rgb(235, 180, 150)" fill-opacity="0.36"/><path d="M69,58L79,58L71,40Z" fill="rgb(203, 183, 159)" fill-opacity="0.50"/><path d="M13,52L11,46L21,46Z" fill="rgb(24, 32, 15)" fill-opacity="0.48"/><path d="M52,52L53,39L42,59Z" fill="rgb(183, 168, 147)" fill-opacity="0.50"/><path d="M90,41L96,45L81,67Z" fill="rgb(176, 162, 144)" fill-opacity="0.52"/><path d="M103,57L99,57L100,47Z" fill="rgb(76, 64, 49)" fill-opacity="0.44"/><path d="M59,22L72,35L77,15Z" fill="rgb(254, 255, 255)" fill-opacity="0.58"/><path d="M51,67L79,72L53,72Z" fill="rgb(98, 85, 97)" fill-opacity="0.50"/><path d="M47,64L34,70L74,64Z" fill="rgb(63, 62, 59)" fill-opacity="0.53"/><path d="M44,44L44,63L47,37Z" fill="rgb(77, 71, 67)" fill-opacity="0.49"/><path d="M58,61L54,43L59,40Z" fill="rgb(205, 181, 156)" fill-opacity="0.53"/><path d="M83,47L86,54L86,40Z" fill="rgb(46, 50, 55)" fill-opacity="0.47"/><path d="M6,75L8,71L-10,67Z" fill="rgb(158, 167, 149)" fill-opacity="0.44"/><path d="M19,64L11,71L18,62Z" fill="rgb(27, 27, 40)" fill-opacity="0.50"/><path d="M75,14L4,15L73,0Z" fill="rgb(120, 173, 219)" fill-opacity="0.74"/><path d="M5,53L21,40L8,42Z" fill="rgb(232, 237, 241)" fill-opacity="0.44"/><path d="M56,66L57,79L58,39Z" fill="rgb(173, 168, 136)" fill-opacity="0.45"/><path d="M53,5L55,27L66,17Z" fill="rgb(134, 186, 227)" fill-opacity="0.47"/><path d="M84,49L84,37L80,67Z" fill="rgb(189, 171, 148)" fill-opacity="0.46"/><path d="M65,39L71,40L94,39Z" fill="rgb(20, 40, 50)" fill-opacity="0.50"/><path d="M26,54L32,42L26,43Z" fill="rgb(71, 73, 74)" fill-opacity="0.56"/><path d="M103,10L106,38L103,52Z" fill="rgb(165, 157, 137)" fill-opacity="0.61"/><path d="M57,52L77,57L29,59Z" fill="rgb(198, 186, 159)" fill-opacity="0.42"/><path d="M95,53L91,26L93,58Z" fill="rgb(137, 120, 103)" fill-opacity="0.53"/><path d="M60,44L62,63L62,43Z" fill="rgb(55, 55, 56)" fill-opacity="0.48"/><path d="M108,29L93,32L102,27Z" fill="rgb(134, 151, 156)" fill-opacity="0.49"/><path d="M22,36L4,37L11,45Z" fill="rgb(204, 232, 251)" fill-opacity="0.53"/><path d="M154,35L105,13L107,43Z" fill="rgb(250, 254, 255)" fill-opacity="0.55"/><path d="M45,72L44,67L45,63Z" fill="rgb(210, 201, 182)" fill-opacity="0.56"/><path d="M86,58L75,58L82,41Z" fill="rgb(192, 175, 152)" fill-opacity="0.50"/><path d="M65,59L57,58L62,61Z" fill="rgb(26, 22, 20)" fill-opacity="0.47"/><path d="M70,40L77,40L73,65Z" fill="rgb(189, 171, 150)" fill-opacity="0.61"/><path d="M69,33L55,35L82,8Z" fill="rgb(254, 255, 255)" fill-opacity="0.43"/><path d="M104,15L118,9L114,15Z" fill="rgb(137, 186, 229)" fill-opacity="0.50"/><path d="M63,71L98,73L41,82Z" fill="rgb(128, 150, 85)" fill-opacity="0.46"/><path d="M100,9L93,4L95,12Z" fill="rgb(73, 65, 58)" fill-opacity="0.47"/><path d="M40,64L74,64L38,62Z" fill="rgb(198, 187, 162)" fill-opacity="0.48"/><path d="M-18,-9L-5,11L55,1Z" fill="rgb(75, 154, 217)" fill-opacity="0.34"/><path d="M115,49L124,52L126,43Z" fill="rgb(174, 150, 135)" fill-opacity="0.51"/><path d="M2,60L7,69L-2,62Z" fill="rgb(113, 100, 75)" fill-opacity="0.48"/><path d="M104,62L118,57L101,57Z" fill="rgb(180, 170, 156)" fill-opacity="0.45"/><path d="M97,69L96,73L100,66Z" fill="rgb(91, 84, 74)" fill-opacity="0.51"/><path d="M79,51L76,49L77,54Z" fill="rgb(75, 81, 85)" fill-opacity="0.50"/><path d="M37,41L34,72L30,39Z" fill="rgb(194, 180, 159)" fill-opacity="0.43"/><path d="M107,50L110,58L122,40Z" fill="rgb(137, 107, 91)" fill-opacity="0.47"/><path d="M18,44L31,67L24,46Z" fill="rgb(195, 186, 167)" fill-opacity="0.53"/><path d="M92,39L71,39L91,40Z" fill="rgb(51, 63, 67)" fill-opacity="0.53"/><path d="M48,36L70,39L94,35Z" fill="rgb(206, 141, 113)" fill-opacity="0.48"/><path d="M68,53L69,42L70,52Z" fill="rgb(31, 36, 43)" fill-opacity="0.47"/><path d="M7,68L19,68L51,75Z" fill="rgb(149, 143, 151)" fill-opacity="0.32"/><path d="M15,58L-1,58L19,62Z" fill="rgb(113, 117, 69)" fill-opacity="0.46"/><path d="M50,56L49,72L45,30Z" fill="rgb(184, 167, 147)" fill-opacity="0.49"/><path d="M103,17L96,16L106,36Z" fill="rgb(126, 127, 118)" fill-opacity="0.50"/><path d="M62,54L82,58L35,58Z" fill="rgb(194, 180, 154)" fill-opacity="0.57"/><path d="M137,69L101,70L118,73Z" fill="rgb(154, 153, 141)" fill-opacity="0.57"/><path d="M110,20L111,-3L114,4Z" fill="rgb(254, 255, 255)" fill-opacity="0.45"/><path d="M16,45L6,50L6,55Z" fill="rgb(106, 117, 117)" fill-opacity="0.60"/><path d="M126,68L123,69L115,50Z" fill="rgb(71, 65, 56)" fill-opacity="0.49"/><path d="M31,69L41,65L25,56Z" fill="rgb(198, 189, 171)" fill-opacity="0.49"/><path d="M-43,72L12,72L13,70Z" fill="rgb(189, 185, 193)" fill-opacity="0.41"/><path d="M85,41L89,48L92,41Z" fill="rgb(195, 185, 165)" fill-opacity="0.51"/><path d="M38,57L36,57L37,38Z" fill="rgb(148, 131, 106)" fill-opacity="0.54"/><path d="M94,57L98,57L95,65Z" fill="rgb(212, 202, 187)" fill-opacity="0.50"/><path d="M56,36L43,17L15,32Z" fill="rgb(255, 255, 255)" fill-opacity="0.49"/><path d="M108,57L94,39L105,33Z" fill="rgb(178, 170, 151)" fill-opacity="0.46"/><path d="M120,67L117,70L115,66Z" fill="rgb(166, 145, 130)" fill-opacity="0.48"/><path d="M5,46L-23,55L4,58Z" fill="rgb(37, 40, 42)" fill-opacity="0.50"/><path d="M24,58L28,72L24,65Z" fill="rgb(183, 167, 157)" fill-opacity="0.48"/><path d="M49,65L40,65L43,66Z" fill="rgb(37, 36, 36)" fill-opacity="0.47"/><path d="M88,64L80,64L97,58Z" fill="rgb(188, 170, 148)" fill-opacity="0.53"/><path d="M21,67L-9,63L31,67Z" fill="rgb(27, 25, 22)" fill-opacity="0.51"/><path d="M69,64L71,57L69,73Z" fill="rgb(160, 150, 132)" fill-opacity="0.64"/><path d="M16,40L63,40L25,38Z" fill="rgb(50, 65, 71)" fill-opacity="0.47"/><path d="M118,50L124,58L119,66Z" fill="rgb(103, 93, 77)" fill-opacity="0.56"/><path d="M97,68L111,76L90,78Z" fill="rgb(102, 126, 65)" fill-opacity="0.34"/><path d="M19,57L28,56L32,67Z" fill="rgb(205, 197, 181)" fill-opacity="0.46"/><path d="M21,45L26,39L19,63Z" fill="rgb(194, 182, 163)" fill-opacity="0.51"/><path d="M54,63L51,60L53,74Z" fill="rgb(142, 136, 115)" fill-opacity="0.53"/><path d="M138,15L103,9L169,-25Z" fill="rgb(255, 254, 254)" fill-opacity="0.68"/><path d="M117,11L100,12L112,18Z" fill="rgb(153, 191, 223)" fill-opacity="0.34"/><path d="M81,40L77,49L84,41Z" fill="rgb(196, 166, 145)" fill-opacity="0.50"/><path d="M60,49L56,67L56,58Z" fill="rgb(181, 168, 145)" fill-opacity="0.75"/><path d="M17,65L19,68L28,68Z" fill="rgb(56, 49, 44)" fill-opacity="0.54"/><path d="M12,60L32,52L26,53Z" fill="rgb(119, 112, 92)" fill-opacity="0.48"/><path d="M23,39L20,43L36,42Z" fill="rgb(180, 169, 149)" fill-opacity="0.46"/><path d="M111,44L113,46L106,46Z" fill="rgb(57, 64, 67)" fill-opacity="0.48"/><path d="M92,3L91,20L97,16Z" fill="rgb(157, 144, 131)" fill-opacity="0.54"/><path d="M4,41L14,42L7,49Z" fill="rgb(255, 255, 255)" fill-opacity="0.55"/><path d="M71,35L90,33L91,14Z" fill="rgb(254, 253, 253)" fill-opacity="0.60"/><path d="M69,7L94,7L85,13Z" fill="rgb(114, 171, 225)" fill-opacity="0.46"/><path d="M126,44L145,29L127,66Z" fill="rgb(5, 7, 5)" fill-opacity="0.54"/><path d="M92,4L104,8L106,4Z" fill="rgb(170, 165, 166)" fill-opacity="0.42"/><path d="M28,44L32,54L25,52Z" fill="rgb(90, 93, 92)" fill-opacity="0.53"/><path d="M90,15L105,11L91,21Z" fill="rgb(162, 151, 138)" fill-opacity="0.60"/><path d="M51,67L46,64L45,67Z" fill="rgb(31, 28, 25)" fill-opacity="0.54"/><path d="M20,45L-1,44L19,41Z" fill="rgb(255, 255, 255)" fill-opacity="0.47"/><path d="M13,68L-5,72L17,68Z" fill="rgb(136, 135, 144)" fill-opacity="0.50"/><path d="M76,50L78,49L77,43Z" fill="rgb(44, 45, 52)" fill-opacity="0.51"/><path d="M47,73L35,69L58,69Z" fill="rgb(98, 96, 90)" fill-opacity="0.62"/><path d="M17,69L27,75L16,66Z" fill="rgb(159, 162, 149)" fill-opacity="0.50"/><path d="M3,67L-7,62L-10,76Z" fill="rgb(8, 2, 9)" fill-opacity="0.54"/><path d="M94,67L95,62L114,71Z" fill="rgb(189, 174, 155)" fill-opacity="0.49"/><path d="M45,41L44,52L46,54Z" fill="rgb(67, 69, 69)" fill-opacity="0.67"/><path d="M120,50L117,37L126,60Z" fill="rgb(154, 152, 142)" fill-opacity="0.53"/><path d="M44,44L40,41L43,52Z" fill="rgb(205, 186, 163)" fill-opacity="0.47"/><path d="M63,55L66,54L69,37Z" fill="rgb(198, 178, 157)" fill-opacity="0.51"/><path d="M62,69L62,65L86,64Z" fill="rgb(34, 36, 38)" fill-opacity="0.33"/><path d="M113,53L100,56L114,56Z" fill="rgb(92, 101, 91)" fill-opacity="0.46"/><path d="M16,64L13,62L12,71Z" fill="rgb(26, 28, 27)" fill-opacity="0.52"/><path d="M48,73L30,81L9,73Z" fill="rgb(120, 149, 75)" fill-opacity="0.41"/><path d="M3,52L10,53L3,47Z" fill="rgb(98, 107, 113)" fill-opacity="0.47"/><path d="M49,39L45,57L53,58Z" fill="rgb(186, 172, 150)" fill-opacity="0.57"/></svg>