<svg xmlns="http://www.w3.org/2000/svg" viewBox="0 0 128 91.66666666666667" clip-path="url(#clip)" width="1401" height="1003.3203125"><defs><clipPath id="clip" clipPathUnits="objectBoundingBox"><rect x="0" y="0" width="128" height="91.66666666666667"/></clipPath></defs><rect x="0" y="0" width="128" height="91.66666666666667" fill="rgb(88, 145, 207)"/><path d="M5,51L45,20L88,50Z" fill="rgb(123, 98, 113)" fill-opacity="0.68"/><path d="M37,67L53,54L44,84Z" fill="rgb(73, 46, 60)" fill-opacity="0.53"/><path d="M157,45L64,43L106,52Z" fill="rgb(76, 43, 41)" fill-opacity="0.70"/><path d="M223,-14L-159,10L58,43Z" fill="rgb(248, 233, 251)" fill-opacity="0.28"/><path d="M48,26L52,43L19,46Z" fill="rgb(3, 32, 88)" fill-opacity="0.48"/><path d="M45,55L60,83L127,61Z" fill="rgb(190, 158, 179)" fill-opacity="0.59"/><path d="M144,9L154,48L83,38Z" fill="rgb(226, 181, 190)" fill-opacity="0.39"/><path d="M69,25L57,20L58,38Z" fill="rgb(252, 229, 227)" fill-opacity="0.49"/><path d="M-9,81L0,1L40,72Z" fill="rgb(255, 188, 185)" fill-opacity="0.25"/><path d="M39,20L43,63L52,20Z" fill="rgb(24, 54, 109)" fill-opacity="0.64"/><path d="M10,-15L34,47L41,32Z" fill="rgb(166, 189, 230)" fill-opacity="0.53"/><path d="M100,36L81,65L63,30Z" fill="rgb(71, 55, 83)" fill-opacity="0.40"/><path d="M34,89L-44,169L169,72Z" fill="rgb(17, 103, 189)" fill-opacity="0.66"/><path d="M74,73L75,61L88,61Z" fill="rgb(54, 74, 110)" fill-opacity="0.45"/><path d="M14,59L10,76L47,58Z" fill="rgb(241, 187, 180)" fill-opacity="0.34"/><path d="M111,56L137,60L135,29Z" fill="rgb(0, 26, 93)" fill-opacity="0.34"/><path d="M43,39L-9,56L13,41Z" fill="rgb(43, 10, 31)" fill-opacity="0.25"/><path d="M75,39L93,27L101,47Z" fill="rgb(93, 90, 119)" fill-opacity="0.66"/><path d="M104,48L101,73L111,75Z" fill="rgb(242, 158, 207)" fill-opacity="0.49"/><path d="M59,122L58,49L62,55Z" fill="rgb(255, 223, 215)" fill-opacity="0.64"/><path d="M105,46L209,1L93,26Z" fill="rgb(153, 171, 213)" fill-opacity="0.83"/><path d="M211,61L61,56L102,49Z" fill="rgb(35, 113, 198)" fill-opacity="0.63"/><path d="M41,48L52,76L39,82Z" fill="rgb(20, 42, 71)" fill-opacity="0.34"/><path d="M56,69L78,28L43,66Z" fill="rgb(209, 157, 173)" fill-opacity="0.38"/><path d="M90,25L88,52L83,27Z" fill="rgb(173, 158, 176)" fill-opacity="0.70"/><path d="M63,24L59,43L58,14Z" fill="rgb(253, 229, 221)" fill-opacity="0.43"/><path d="M74,33L85,37L83,44Z" fill="rgb(1, 31, 89)" fill-opacity="0.51"/><path d="M81,87L74,71L49,94Z" fill="rgb(55, 122, 201)" fill-opacity="0.52"/><path d="M9,51L11,32L-35,44Z" fill="rgb(208, 181, 199)" fill-opacity="0.40"/><path d="M104,22L97,47L112,43Z" fill="rgb(199, 165, 167)" fill-opacity="0.39"/><path d="M36,50L-6,51L30,62Z" fill="rgb(15, 106, 196)" fill-opacity="0.37"/><path d="M77,56L96,63L98,76Z" fill="rgb(176, 160, 153)" fill-opacity="0.57"/><path d="M80,35L71,50L76,22Z" fill="rgb(69, 83, 121)" fill-opacity="0.50"/><path d="M24,47L25,50L16,48Z" fill="rgb(255, 254, 219)" fill-opacity="0.54"/><path d="M107,48L143,39L120,50Z" fill="rgb(48, 20, 2)" fill-opacity="0.50"/><path d="M40,9L40,41L-51,8Z" fill="rgb(162, 189, 231)" fill-opacity="0.57"/><path d="M74,40L74,24L69,40Z" fill="rgb(192, 197, 234)" fill-opacity="0.60"/><path d="M70,63L64,73L67,59Z" fill="rgb(142, 73, 117)" fill-opacity="0.51"/><path d="M14,44L12,29L10,51Z" fill="rgb(110, 85, 124)" fill-opacity="0.64"/><path d="M55,50L94,47L36,47Z" fill="rgb(68, 44, 23)" fill-opacity="0.47"/><path d="M65,50L51,38L69,43Z" fill="rgb(178, 159, 164)" fill-opacity="0.61"/><path d="M93,43L89,92L91,43Z" fill="rgb(27, 60, 76)" fill-opacity="0.29"/><path d="M77,60L72,70L71,57Z" fill="rgb(214, 221, 255)" fill-opacity="0.42"/><path d="M48,3L56,28L52,52Z" fill="rgb(171, 189, 227)" fill-opacity="0.61"/><path d="M-19,33L-3,37L6,53Z" fill="rgb(107, 89, 114)" fill-opacity="0.49"/><path d="M90,35L97,48L90,51Z" fill="rgb(11, 18, 36)" fill-opacity="0.41"/><path d="M37,83L-42,89L69,152Z" fill="rgb(47, 125, 203)" fill-opacity="0.71"/><path d="M77,44L74,78L76,76Z" fill="rgb(35, 74, 122)" fill-opacity="0.56"/><path d="M11,68L23,56L15,76Z" fill="rgb(255, 211, 191)" fill-opacity="0.35"/><path d="M40,22L40,41L49,23Z" fill="rgb(3, 25, 85)" fill-opacity="0.64"/><path d="M41,44L46,41L55,50Z" fill="rgb(5, 24, 59)" fill-opacity="0.48"/><path d="M40,84L40,64L26,59Z" fill="rgb(135, 156, 210)" fill-opacity="0.65"/><path d="M57,74L62,59L63,74Z" fill="rgb(255, 235, 217)" fill-opacity="0.48"/><path d="M40,51L52,52L47,70Z" fill="rgb(81, 125, 179)" fill-opacity="0.47"/><path d="M74,49L89,53L82,76Z" fill="rgb(82, 136, 212)" fill-opacity="0.40"/><path d="M12,36L19,42L27,31Z" fill="rgb(194, 151, 156)" fill-opacity="0.40"/><path d="M58,32L65,30L63,39Z" fill="rgb(228, 214, 219)" fill-opacity="0.61"/><path d="M52,80L40,74L40,60Z" fill="rgb(0, 15, 50)" fill-opacity="0.42"/><path d="M85,93L62,78L69,64Z" fill="rgb(76, 127, 201)" fill-opacity="0.47"/><path d="M40,36L50,47L48,36Z" fill="rgb(15, 42, 97)" fill-opacity="0.55"/><path d="M39,81L49,78L49,89Z" fill="rgb(167, 154, 191)" fill-opacity="0.53"/><path d="M108,69L104,44L103,78Z" fill="rgb(216, 152, 193)" fill-opacity="0.55"/><path d="M56,43L73,34L67,31Z" fill="rgb(93, 51, 83)" fill-opacity="0.38"/><path d="M7,60L-10,49L21,54Z" fill="rgb(80, 142, 216)" fill-opacity="0.56"/><path d="M67,42L75,44L77,40Z" fill="rgb(3, 25, 96)" fill-opacity="0.51"/><path d="M75,67L71,70L72,53Z" fill="rgb(201, 204, 255)" fill-opacity="0.47"/><path d="M105,58L111,57L105,78Z" fill="rgb(206, 198, 217)" fill-opacity="0.52"/><path d="M80,73L78,88L80,55Z" fill="rgb(209, 188, 203)" fill-opacity="0.53"/><path d="M88,32L77,18L76,35Z" fill="rgb(180, 181, 200)" fill-opacity="0.52"/><path d="M90,42L79,55L90,31Z" fill="rgb(184, 151, 153)" fill-opacity="0.36"/><path d="M109,58L160,60L134,46Z" fill="rgb(2, 112, 193)" fill-opacity="0.53"/><path d="M11,73L-35,63L10,58Z" fill="rgb(157, 176, 226)" fill-opacity="0.55"/><path d="M40,73L44,57L42,90Z" fill="rgb(0, 32, 99)" fill-opacity="0.43"/><path d="M55,51L55,67L58,53Z" fill="rgb(67, 113, 192)" fill-opacity="0.50"/><path d="M35,27L33,45L35,67Z" fill="rgb(224, 188, 180)" fill-opacity="0.38"/><path d="M161,40L46,0L98,-68Z" fill="rgb(102, 166, 230)" fill-opacity="0.40"/><path d="M95,46L90,50L113,46Z" fill="rgb(56, 34, 27)" fill-opacity="0.65"/><path d="M80,90L140,163L139,84Z" fill="rgb(3, 102, 186)" fill-opacity="0.73"/><path d="M47,55L39,50L41,60Z" fill="rgb(51, 121, 205)" fill-opacity="0.53"/><path d="M16,37L16,51L20,33Z" fill="rgb(57, 72, 125)" fill-opacity="0.44"/><path d="M104,50L102,49L108,48Z" fill="rgb(252, 167, 106)" fill-opacity="0.50"/><path d="M64,30L57,5L74,32Z" fill="rgb(150, 178, 224)" fill-opacity="0.78"/><path d="M55,61L49,52L51,77Z" fill="rgb(255, 174, 222)" fill-opacity="0.35"/><path d="M62,-111L57,20L-16,27Z" fill="rgb(138, 182, 231)" fill-opacity="0.47"/><path d="M115,45L121,40L137,55Z" fill="rgb(33, 21, 29)" fill-opacity="0.33"/><path d="M6,13L11,37L-12,53Z" fill="rgb(168, 190, 232)" fill-opacity="0.63"/><path d="M57,46L64,55L73,53Z" fill="rgb(0, 37, 132)" fill-opacity="0.24"/><path d="M72,45L61,49L80,48Z" fill="rgb(67, 49, 63)" fill-opacity="0.52"/><path d="M61,73L75,81L73,66Z" fill="rgb(105, 148, 209)" fill-opacity="0.52"/><path d="M65,44L63,28L60,49Z" fill="rgb(207, 186, 197)" fill-opacity="0.40"/><path d="M91,72L91,61L98,60Z" fill="rgb(196, 180, 96)" fill-opacity="0.40"/><path d="M88,76L85,70L87,66Z" fill="rgb(215, 237, 255)" fill-opacity="0.50"/><path d="M13,42L19,29L13,28Z" fill="rgb(255, 202, 179)" fill-opacity="0.39"/><path d="M44,50L58,50L14,46Z" fill="rgb(190, 164, 150)" fill-opacity="0.56"/><path d="M11,37L19,47L20,45Z" fill="rgb(36, 52, 103)" fill-opacity="0.49"/><path d="M13,63L10,77L12,53Z" fill="rgb(118, 110, 153)" fill-opacity="0.53"/><path d="M110,45L120,45L101,48Z" fill="rgb(19, 11, 22)" fill-opacity="0.47"/><path d="M48,57L51,73L47,79Z" fill="rgb(59, 81, 122)" fill-opacity="0.66"/><path d="M75,35L70,40L75,40Z" fill="rgb(208, 214, 255)" fill-opacity="0.42"/><path d="M48,66L42,53L44,71Z" fill="rgb(113, 136, 131)" fill-opacity="0.51"/><path d="M122,75L103,55L136,64Z" fill="rgb(113, 139, 203)" fill-opacity="0.62"/><path d="M56,40L77,44L65,38Z" fill="rgb(81, 74, 117)" fill-opacity="0.54"/><path d="M51,45L49,27L55,48Z" fill="rgb(178, 172, 185)" fill-opacity="0.50"/><path d="M75,50L104,50L85,48Z" fill="rgb(235, 151, 108)" fill-opacity="0.42"/><path d="M77,68L80,74L80,93Z" fill="rgb(245, 196, 191)" fill-opacity="0.39"/><path d="M40,66L43,76L41,58Z" fill="rgb(0, 20, 59)" fill-opacity="0.50"/><path d="M80,95L39,103L52,83Z" fill="rgb(43, 120, 200)" fill-opacity="0.64"/><path d="M67,86L171,78L159,59Z" fill="rgb(70, 125, 198)" fill-opacity="0.57"/><path d="M57,37L69,37L74,40Z" fill="rgb(200, 171, 201)" fill-opacity="0.51"/><path d="M86,36L75,38L74,32Z" fill="rgb(16, 50, 114)" fill-opacity="0.48"/><path d="M109,23L119,14L144,56Z" fill="rgb(141, 172, 221)" fill-opacity="0.73"/><path d="M33,48L40,50L30,46Z" fill="rgb(250, 214, 179)" fill-opacity="0.50"/><path d="M107,59L99,55L109,49Z" fill="rgb(115, 106, 193)" fill-opacity="0.47"/><path d="M58,31L60,16L62,39Z" fill="rgb(255, 239, 230)" fill-opacity="0.54"/><path d="M73,70L62,65L67,60Z" fill="rgb(149, 96, 131)" fill-opacity="0.55"/><path d="M101,26L80,32L77,13Z" fill="rgb(154, 183, 227)" fill-opacity="0.57"/><path d="M54,46L54,31L51,49Z" fill="rgb(253, 225, 199)" fill-opacity="0.42"/><path d="M84,73L86,62L84,63Z" fill="rgb(87, 74, 123)" fill-opacity="0.50"/><path d="M69,49L73,51L89,49Z" fill="rgb(183, 150, 155)" fill-opacity="0.50"/><path d="M9,76L42,59L31,82Z" fill="rgb(133, 162, 217)" fill-opacity="0.41"/><path d="M86,48L89,44L85,34Z" fill="rgb(182, 144, 146)" fill-opacity="0.55"/><path d="M59,43L61,49L47,49Z" fill="rgb(69, 64, 75)" fill-opacity="0.54"/><path d="M45,78L48,80L45,90Z" fill="rgb(200, 242, 234)" fill-opacity="0.51"/><path d="M100,77L104,63L81,76Z" fill="rgb(113, 149, 210)" fill-opacity="0.42"/><path d="M93,36L108,37L109,42Z" fill="rgb(183, 181, 201)" fill-opacity="0.55"/><path d="M44,71L48,63L44,57Z" fill="rgb(148, 150, 119)" fill-opacity="0.43"/><path d="M50,83L50,67L58,72Z" fill="rgb(118, 147, 206)" fill-opacity="0.63"/><path d="M15,47L25,47L15,50Z" fill="rgb(222, 198, 181)" fill-opacity="0.52"/><path d="M31,50L38,48L29,48Z" fill="rgb(216, 173, 122)" fill-opacity="0.50"/><path d="M63,61L59,49L61,84Z" fill="rgb(249, 204, 205)" fill-opacity="0.53"/><path d="M64,42L73,53L63,35Z" fill="rgb(163, 141, 152)" fill-opacity="0.50"/><path d="M94,73L98,79L96,56Z" fill="rgb(179, 187, 199)" fill-opacity="0.51"/><path d="M49,92L47,80L49,81Z" fill="rgb(193, 134, 184)" fill-opacity="0.49"/><path d="M100,42L105,35L100,50Z" fill="rgb(104, 78, 101)" fill-opacity="0.50"/><path d="M77,53L68,50L128,51Z" fill="rgb(13, 93, 179)" fill-opacity="0.47"/><path d="M40,17L39,21L54,19Z" fill="rgb(140, 130, 174)" fill-opacity="0.43"/><path d="M50,50L60,49L49,59Z" fill="rgb(139, 113, 181)" fill-opacity="0.49"/><path d="M5,45L13,50L-4,50Z" fill="rgb(192, 143, 134)" fill-opacity="0.49"/><path d="M74,72L77,65L77,78Z" fill="rgb(6, 44, 65)" fill-opacity="0.36"/><path d="M105,38L97,45L100,40Z" fill="rgb(212, 186, 193)" fill-opacity="0.48"/><path d="M-30,-6L107,29L164,21Z" fill="rgb(134, 175, 225)" fill-opacity="0.57"/><path d="M108,75L108,56L103,76Z" fill="rgb(255, 190, 195)" fill-opacity="0.40"/><path d="M29,63L24,73L29,56Z" fill="rgb(183, 208, 228)" fill-opacity="0.50"/><path d="M13,61L18,56L23,62Z" fill="rgb(199, 179, 190)" fill-opacity="0.47"/><path d="M63,68L71,70L65,63Z" fill="rgb(74, 80, 141)" fill-opacity="0.38"/><path d="M45,87L44,74L41,88Z" fill="rgb(37, 93, 169)" fill-opacity="0.45"/><path d="M46,71L50,67L50,83Z" fill="rgb(26, 61, 113)" fill-opacity="0.53"/><path d="M149,51L109,59L110,50Z" fill="rgb(0, 108, 192)" fill-opacity="0.58"/><path d="M80,56L89,58L87,63Z" fill="rgb(163, 163, 217)" fill-opacity="0.47"/><path d="M103,42L106,52L108,49Z" fill="rgb(151, 95, 82)" fill-opacity="0.47"/><path d="M76,37L76,19L75,33Z" fill="rgb(0, 31, 89)" fill-opacity="0.51"/><path d="M46,35L44,35L44,33Z" fill="rgb(155, 145, 160)" fill-opacity="0.50"/><path d="M125,44L105,44L114,42Z" fill="rgb(173, 147, 177)" fill-opacity="0.45"/><path d="M5,47L-7,39L3,48Z" fill="rgb(115, 83, 96)" fill-opacity="0.43"/><path d="M70,40L70,47L90,48Z" fill="rgb(50, 51, 78)" fill-opacity="0.49"/><path d="M9,46L26,41L35,46Z" fill="rgb(35, 48, 79)" fill-opacity="0.48"/><path d="M108,62L151,66L108,75Z" fill="rgb(110, 146, 204)" fill-opacity="0.59"/><path d="M66,59L72,64L67,66Z" fill="rgb(210, 117, 138)" fill-opacity="0.47"/><path d="M46,53L45,35L49,45Z" fill="rgb(26, 47, 83)" fill-opacity="0.51"/><path d="M82,49L75,41L73,49Z" fill="rgb(47, 45, 63)" fill-opacity="0.47"/><path d="M107,26L109,44L104,30Z" fill="rgb(213, 197, 208)" fill-opacity="0.54"/><path d="M71,32L71,40L66,31Z" fill="rgb(98, 57, 82)" fill-opacity="0.43"/><path d="M76,65L75,58L85,67Z" fill="rgb(59, 56, 95)" fill-opacity="0.32"/><path d="M65,60L62,55L85,56Z" fill="rgb(95, 135, 214)" fill-opacity="0.48"/><path d="M22,87L-15,72L7,68Z" fill="rgb(106, 154, 218)" fill-opacity="0.41"/><path d="M95,27L90,40L90,29Z" fill="rgb(52, 78, 127)" fill-opacity="0.47"/><path d="M37,50L33,47L29,50Z" fill="rgb(237, 198, 164)" fill-opacity="0.47"/><path d="M78,20L78,21L72,32Z" fill="rgb(55, 90, 142)" fill-opacity="0.52"/><path d="M100,84L81,83L103,71Z" fill="rgb(68, 130, 201)" fill-opacity="0.51"/><path d="M17,68L20,60L20,66Z" fill="rgb(255, 244, 230)" fill-opacity="0.44"/><path d="M35,56L35,61L34,61Z" fill="rgb(255, 249, 247)" fill-opacity="0.49"/><path d="M78,21L62,35L62,0Z" fill="rgb(144, 177, 224)" fill-opacity="0.51"/><path d="M20,40L39,41L37,38Z" fill="rgb(74, 68, 108)" fill-opacity="0.47"/><path d="M56,64L58,66L54,79Z" fill="rgb(106, 122, 173)" fill-opacity="0.50"/><path d="M33,66L32,59L29,63Z" fill="rgb(84, 103, 176)" fill-opacity="0.48"/><path d="M76,44L75,35L76,23Z" fill="rgb(0, 24, 81)" fill-opacity="0.57"/><path d="M4,50L26,51L81,50Z" fill="rgb(77, 78, 122)" fill-opacity="0.62"/><path d="M28,46L44,45L50,49Z" fill="rgb(84, 88, 94)" fill-opacity="0.42"/><path d="M10,47L10,45L6,47Z" fill="rgb(82, 77, 79)" fill-opacity="0.48"/><path d="M20,46L23,50L14,9Z" fill="rgb(181, 185, 208)" fill-opacity="0.39"/><path d="M27,37L40,26L-19,10Z" fill="rgb(168, 188, 226)" fill-opacity="0.50"/><path d="M77,41L78,51L78,26Z" fill="rgb(157, 149, 158)" fill-opacity="0.47"/><path d="M26,57L17,83L21,59Z" fill="rgb(133, 146, 196)" fill-opacity="0.49"/><path d="M20,50L22,50L7,40Z" fill="rgb(181, 175, 195)" fill-opacity="0.45"/><path d="M93,33L92,32L92,44Z" fill="rgb(209, 200, 196)" fill-opacity="0.55"/><path d="M62,69L65,67L62,55Z" fill="rgb(183, 171, 198)" fill-opacity="0.53"/><path d="M26,51L24,55L40,51Z" fill="rgb(30, 126, 207)" fill-opacity="0.46"/><path d="M84,35L81,42L78,34Z" fill="rgb(3, 34, 101)" fill-opacity="0.52"/><path d="M83,28L112,29L108,17Z" fill="rgb(147, 175, 223)" fill-opacity="0.57"/><path d="M16,51L11,37L13,51Z" fill="rgb(70, 56, 106)" fill-opacity="0.47"/><path d="M78,78L76,68L78,66Z" fill="rgb(212, 193, 171)" fill-opacity="0.52"/><path d="M56,44L55,37L53,50Z" fill="rgb(62, 67, 98)" fill-opacity="0.55"/><path d="M51,41L49,7L58,21Z" fill="rgb(153, 178, 224)" fill-opacity="0.61"/><path d="M75,39L58,46L74,38Z" fill="rgb(173, 174, 205)" fill-opacity="0.49"/><path d="M62,83L64,66L74,79Z" fill="rgb(94, 142, 207)" fill-opacity="0.64"/><path d="M106,38L98,38L111,42Z" fill="rgb(199, 200, 218)" fill-opacity="0.48"/><path d="M51,50L50,39L48,42Z" fill="rgb(25, 72, 136)" fill-opacity="0.50"/><path d="M73,44L66,42L66,38Z" fill="rgb(86, 92, 133)" fill-opacity="0.54"/><path d="M108,50L137,50L99,48Z" fill="rgb(153, 96, 69)" fill-opacity="0.58"/><path d="M90,42L78,42L76,44Z" fill="rgb(121, 117, 148)" fill-opacity="0.57"/><path d="M19,42L19,35L20,41Z" fill="rgb(255, 255, 234)" fill-opacity="0.48"/><path d="M63,76L62,62L59,87Z" fill="rgb(238, 210, 211)" fill-opacity="0.50"/></svg>