<svg xmlns="http://www.w3.org/2000/svg" viewBox="0 0 128 128" clip-path="url(#clip)" width="256" height="256"><defs><clipPath id="clip" clipPathUnits="objectBoundingBox"><rect x="0" y="0" width="128" height="128"/></clipPath></defs><rect x="0" y="0" width="128" height="128" fill="rgb(48, 50, 53)"/><path d="M105,85L65,-8L40,93Z" fill="rgb(250, 199, 155)" fill-opacity="0.67"/><path d="M155,196L60,17L61,107Z" fill="rgb(255, 223, 192)" fill-opacity="0.48"/><path d="M105,102L141,126L51,145Z" fill="rgb(152, 182, 191)" fill-opacity="0.64"/><path d="M95,92L38,36L86,18Z" fill="rgb(239, 196, 154)" fill-opacity="0.59"/><path d="M36,96L44,21L75,128Z" fill="rgb(126, 81, 59)" fill-opacity="0.73"/><path d="M34,29L40,-25L162,7Z" fill="rgb(5, 3, 2)" fill-opacity="0.62"/><path d="M-11,126L28,153L29,102Z" fill="rgb(67, 106, 134)" fill-opacity="0.54"/><path d="M88,55L73,69L66,56Z" fill="rgb(104, 66, 62)" fill-opacity="0.48"/><path d="M93,103L389,155L97,-11Z" fill="rgb(1, 0, 0)" fill-opacity="0.61"/><path d="M14,45L43,2L42,65Z" fill="rgb(14, 6, 1)" fill-opacity="0.58"/><path d="M78,129L95,97L100,122Z" fill="rgb(238, 207, 165)" fill-opacity="0.54"/><path d="M74,96L53,100L78,110Z" fill="rgb(255, 208, 180)" fill-opacity="0.47"/><path d="M40,54L65,61L54,17Z" fill="rgb(241, 166, 117)" fill-opacity="0.42"/><path d="M86,101L65,86L38,89Z" fill="rgb(69, 44, 36)" fill-opacity="0.54"/><path d="M39,114L86,114L63,136Z" fill="rgb(32, 22, 19)" fill-opacity="0.49"/><path d="M82,83L76,65L63,75Z" fill="rgb(255, 248, 215)" fill-opacity="0.52"/><path d="M94,100L128,116L100,148Z" fill="rgb(118, 157, 179)" fill-opacity="0.54"/><path d="M37,73L50,86L53,63Z" fill="rgb(212, 151, 107)" fill-opacity="0.49"/><path d="M60,18L84,24L82,56Z" fill="rgb(248, 248, 222)" fill-opacity="0.32"/><path d="M98,46L87,46L99,27Z" fill="rgb(115, 93, 81)" fill-opacity="0.48"/><path d="M99,75L90,95L59,85Z" fill="rgb(235, 180, 128)" fill-opacity="0.44"/><path d="M76,119L83,97L97,99Z" fill="rgb(65, 47, 36)" fill-opacity="0.53"/><path d="M51,60L57,109L60,62Z" fill="rgb(61, 29, 23)" fill-opacity="0.45"/><path d="M-9,87L17,18L37,127Z" fill="rgb(55, 58, 62)" fill-opacity="0.81"/><path d="M26,27L54,149L28,80Z" fill="rgb(15, 3, 0)" fill-opacity="0.41"/><path d="M38,41L69,-18L35,91Z" fill="rgb(116, 72, 46)" fill-opacity="0.28"/><path d="M84,28L66,-20L211,64Z" fill="rgb(6, 4, 3)" fill-opacity="0.43"/><path d="M58,62L90,67L73,91Z" fill="rgb(255, 220, 185)" fill-opacity="0.47"/><path d="M61,84L57,95L42,96Z" fill="rgb(10, 11, 13)" fill-opacity="0.46"/><path d="M96,25L100,45L61,-2Z" fill="rgb(53, 47, 44)" fill-opacity="0.75"/><path d="M50,51L92,58L89,32Z" fill="rgb(255, 222, 179)" fill-opacity="0.38"/><path d="M72,111L82,98L55,96Z" fill="rgb(250, 183, 155)" fill-opacity="0.40"/><path d="M93,102L68,173L101,109Z" fill="rgb(222, 202, 166)" fill-opacity="0.67"/><path d="M54,28L88,9L1,-29Z" fill="rgb(46, 44, 45)" fill-opacity="0.57"/><path d="M102,56L95,81L93,59Z" fill="rgb(93, 72, 66)" fill-opacity="0.57"/><path d="M47,31L47,54L68,22Z" fill="rgb(216, 154, 108)" fill-opacity="0.52"/><path d="M4,120L-19,212L57,125Z" fill="rgb(174, 205, 230)" fill-opacity="0.10"/><path d="M79,67L89,59L69,55Z" fill="rgb(135, 101, 89)" fill-opacity="0.48"/><path d="M140,99L103,107L136,113Z" fill="rgb(32, 31, 33)" fill-opacity="0.47"/><path d="M65,110L81,101L75,112Z" fill="rgb(224, 188, 137)" fill-opacity="0.54"/><path d="M104,51L160,135L117,-58Z" fill="rgb(2, 2, 1)" fill-opacity="0.49"/><path d="M106,68L88,99L122,111Z" fill="rgb(41, 40, 43)" fill-opacity="0.48"/><path d="M44,95L55,77L42,79Z" fill="rgb(198, 143, 94)" fill-opacity="0.44"/></svg>